<mxfile host="Electron" agent="Mozilla/5.0 (Windows NT 10.0; Win64; x64) AppleWebKit/537.36 (KHTML, like Gecko) draw.io/26.2.2 Chrome/134.0.6998.178 Electron/35.1.2 Safari/537.36" version="26.2.2">
  <diagram name="Page-1" id="2eAXKPQFrjr-yJMaP4zy">
    <mxGraphModel dx="511" dy="2432" grid="1" gridSize="10" guides="0" tooltips="1" connect="1" arrows="1" fold="1" page="1" pageScale="1" pageWidth="850" pageHeight="1100" math="0" shadow="0">
      <root>
        <mxCell id="0" />
        <mxCell id="1" parent="0" />
        <mxCell id="ydcpMR5mMKtuc0FMqWmv-127" value="" style="rounded=0;whiteSpace=wrap;html=1;" parent="1" vertex="1">
          <mxGeometry x="1300" y="390" width="200" height="180" as="geometry" />
        </mxCell>
        <mxCell id="ydcpMR5mMKtuc0FMqWmv-7" value="" style="rounded=0;whiteSpace=wrap;html=1;" parent="1" vertex="1">
          <mxGeometry x="1020" y="390" width="240" height="330" as="geometry" />
        </mxCell>
        <mxCell id="ydcpMR5mMKtuc0FMqWmv-15" value="&lt;font face=&quot;Lucida Console&quot;&gt;FC_SYNAPSE_LOADER&lt;/font&gt;" style="rounded=1;whiteSpace=wrap;html=1;" parent="1" vertex="1">
          <mxGeometry x="1020" y="390" width="240" height="20" as="geometry" />
        </mxCell>
        <mxCell id="ydcpMR5mMKtuc0FMqWmv-21" value="" style="group" parent="1" vertex="1" connectable="0">
          <mxGeometry x="1140" y="850" width="20" height="100" as="geometry" />
        </mxCell>
        <mxCell id="ydcpMR5mMKtuc0FMqWmv-16" value="" style="endArrow=none;html=1;rounded=0;" parent="ydcpMR5mMKtuc0FMqWmv-21" edge="1">
          <mxGeometry width="50" height="50" relative="1" as="geometry">
            <mxPoint x="20" y="80" as="sourcePoint" />
            <mxPoint x="20" y="20" as="targetPoint" />
          </mxGeometry>
        </mxCell>
        <mxCell id="ydcpMR5mMKtuc0FMqWmv-17" value="" style="endArrow=none;html=1;rounded=0;" parent="ydcpMR5mMKtuc0FMqWmv-21" edge="1">
          <mxGeometry width="50" height="50" relative="1" as="geometry">
            <mxPoint y="100" as="sourcePoint" />
            <mxPoint as="targetPoint" />
          </mxGeometry>
        </mxCell>
        <mxCell id="ydcpMR5mMKtuc0FMqWmv-18" value="" style="endArrow=none;html=1;rounded=0;" parent="ydcpMR5mMKtuc0FMqWmv-21" edge="1">
          <mxGeometry width="50" height="50" relative="1" as="geometry">
            <mxPoint x="20" y="20" as="sourcePoint" />
            <mxPoint as="targetPoint" />
          </mxGeometry>
        </mxCell>
        <mxCell id="ydcpMR5mMKtuc0FMqWmv-19" value="" style="endArrow=none;html=1;rounded=0;" parent="ydcpMR5mMKtuc0FMqWmv-21" edge="1">
          <mxGeometry width="50" height="50" relative="1" as="geometry">
            <mxPoint x="20" y="80" as="sourcePoint" />
            <mxPoint y="100" as="targetPoint" />
          </mxGeometry>
        </mxCell>
        <mxCell id="ydcpMR5mMKtuc0FMqWmv-20" value="&lt;font face=&quot;Lucida Console&quot;&gt;M&lt;/font&gt;&lt;div&gt;&lt;font face=&quot;Lucida Console&quot;&gt;U&lt;/font&gt;&lt;/div&gt;&lt;div&gt;&lt;font face=&quot;Lucida Console&quot;&gt;X&lt;/font&gt;&lt;/div&gt;" style="rounded=0;whiteSpace=wrap;html=1;fillColor=none;strokeColor=none;" parent="ydcpMR5mMKtuc0FMqWmv-21" vertex="1">
          <mxGeometry y="20" width="20" height="60" as="geometry" />
        </mxCell>
        <mxCell id="ydcpMR5mMKtuc0FMqWmv-91" style="edgeStyle=orthogonalEdgeStyle;rounded=0;orthogonalLoop=1;jettySize=auto;html=1;entryX=0;entryY=0.5;entryDx=0;entryDy=0;fontFamily=Helvetica;fontSize=12;fontColor=default;" parent="1" source="ydcpMR5mMKtuc0FMqWmv-54" target="ydcpMR5mMKtuc0FMqWmv-67" edge="1">
          <mxGeometry relative="1" as="geometry">
            <Array as="points">
              <mxPoint x="1030" y="528" />
              <mxPoint x="1030" y="625" />
            </Array>
          </mxGeometry>
        </mxCell>
        <mxCell id="ydcpMR5mMKtuc0FMqWmv-54" value="EVENT_BUF" style="rounded=0;whiteSpace=wrap;html=1;fillColor=#f5f5f5;fontColor=#333333;strokeColor=#666666;" parent="1" vertex="1">
          <mxGeometry x="1050" y="512.5" width="80" height="30" as="geometry" />
        </mxCell>
        <mxCell id="ydcpMR5mMKtuc0FMqWmv-55" value="CONFIG" style="rounded=0;whiteSpace=wrap;html=1;" parent="1" vertex="1">
          <mxGeometry x="1050" y="430" width="180" height="20" as="geometry" />
        </mxCell>
        <mxCell id="ydcpMR5mMKtuc0FMqWmv-56" value="&lt;font face=&quot;Lucida Console&quot;&gt;FSM&lt;/font&gt;&lt;div&gt;&lt;font face=&quot;Lucida Console&quot;&gt;(CONTROL)&lt;/font&gt;&lt;/div&gt;" style="rounded=0;whiteSpace=wrap;html=1;" parent="1" vertex="1">
          <mxGeometry x="1050" y="450" width="180" height="40" as="geometry" />
        </mxCell>
        <mxCell id="ydcpMR5mMKtuc0FMqWmv-65" value="&lt;font face=&quot;Lucida Console&quot;&gt;BRAM_INTERFACE&lt;/font&gt;" style="rounded=0;whiteSpace=wrap;html=1;" parent="1" vertex="1">
          <mxGeometry x="1050" y="660" width="180" height="40" as="geometry" />
        </mxCell>
        <mxCell id="ydcpMR5mMKtuc0FMqWmv-66" value="&lt;font face=&quot;Lucida Console&quot;&gt;SYNAPSE&lt;/font&gt;&lt;div&gt;&lt;font face=&quot;Lucida Console&quot;&gt;COUNTER&lt;/font&gt;&lt;/div&gt;" style="rounded=0;whiteSpace=wrap;html=1;" parent="1" vertex="1">
          <mxGeometry x="1050" y="560" width="80" height="30" as="geometry" />
        </mxCell>
        <mxCell id="ydcpMR5mMKtuc0FMqWmv-67" value="&lt;font face=&quot;Lucida Console&quot;&gt;ADDR&lt;/font&gt;&lt;div&gt;&lt;font face=&quot;Lucida Console&quot;&gt;DECODE&lt;/font&gt;&lt;/div&gt;" style="rounded=0;whiteSpace=wrap;html=1;" parent="1" vertex="1">
          <mxGeometry x="1050" y="610" width="80" height="30" as="geometry" />
        </mxCell>
        <mxCell id="ydcpMR5mMKtuc0FMqWmv-70" value="" style="endArrow=classic;html=1;rounded=0;" parent="1" edge="1">
          <mxGeometry width="50" height="50" relative="1" as="geometry">
            <mxPoint x="1089.8" y="640" as="sourcePoint" />
            <mxPoint x="1089.8" y="660" as="targetPoint" />
          </mxGeometry>
        </mxCell>
        <mxCell id="ydcpMR5mMKtuc0FMqWmv-71" value="" style="endArrow=classic;html=1;rounded=0;" parent="1" edge="1">
          <mxGeometry width="50" height="50" relative="1" as="geometry">
            <mxPoint x="1089.8" y="590" as="sourcePoint" />
            <mxPoint x="1089.8" y="610" as="targetPoint" />
          </mxGeometry>
        </mxCell>
        <mxCell id="ydcpMR5mMKtuc0FMqWmv-79" value="" style="endArrow=none;html=1;rounded=0;" parent="1" edge="1">
          <mxGeometry width="50" height="50" relative="1" as="geometry">
            <mxPoint x="1230" y="590" as="sourcePoint" />
            <mxPoint x="1150" y="590" as="targetPoint" />
          </mxGeometry>
        </mxCell>
        <mxCell id="ydcpMR5mMKtuc0FMqWmv-84" value="" style="endArrow=none;html=1;rounded=0;" parent="1" edge="1">
          <mxGeometry width="50" height="50" relative="1" as="geometry">
            <mxPoint x="1220" y="560" as="sourcePoint" />
            <mxPoint x="1160" y="560" as="targetPoint" />
          </mxGeometry>
        </mxCell>
        <mxCell id="ydcpMR5mMKtuc0FMqWmv-85" value="" style="endArrow=none;html=1;rounded=0;" parent="1" edge="1">
          <mxGeometry width="50" height="50" relative="1" as="geometry">
            <mxPoint x="1150" y="590" as="sourcePoint" />
            <mxPoint x="1160" y="560" as="targetPoint" />
          </mxGeometry>
        </mxCell>
        <mxCell id="ydcpMR5mMKtuc0FMqWmv-86" value="" style="endArrow=none;html=1;rounded=0;" parent="1" edge="1">
          <mxGeometry width="50" height="50" relative="1" as="geometry">
            <mxPoint x="1230" y="590" as="sourcePoint" />
            <mxPoint x="1220" y="560" as="targetPoint" />
          </mxGeometry>
        </mxCell>
        <mxCell id="ydcpMR5mMKtuc0FMqWmv-87" value="" style="endArrow=classic;html=1;rounded=0;" parent="1" edge="1">
          <mxGeometry width="50" height="50" relative="1" as="geometry">
            <mxPoint x="1130" y="574.83" as="sourcePoint" />
            <mxPoint x="1155" y="575" as="targetPoint" />
          </mxGeometry>
        </mxCell>
        <mxCell id="ydcpMR5mMKtuc0FMqWmv-88" value="MUX" style="rounded=0;whiteSpace=wrap;html=1;fontFamily=Lucida Console;fillColor=none;strokeColor=none;align=center;fontSize=12;" parent="1" vertex="1">
          <mxGeometry x="1160" y="565" width="60" height="20" as="geometry" />
        </mxCell>
        <mxCell id="ydcpMR5mMKtuc0FMqWmv-89" value="" style="endArrow=classic;html=1;rounded=0;" parent="1" edge="1">
          <mxGeometry width="50" height="50" relative="1" as="geometry">
            <mxPoint x="1189.83" y="660" as="sourcePoint" />
            <mxPoint x="1189.83" y="590" as="targetPoint" />
          </mxGeometry>
        </mxCell>
        <mxCell id="ydcpMR5mMKtuc0FMqWmv-93" value="" style="endArrow=classic;html=1;rounded=0;entryX=0;entryY=0.5;entryDx=0;entryDy=0;" parent="1" target="ydcpMR5mMKtuc0FMqWmv-121" edge="1">
          <mxGeometry width="50" height="50" relative="1" as="geometry">
            <mxPoint x="1190" y="560" as="sourcePoint" />
            <mxPoint x="1280" y="520" as="targetPoint" />
            <Array as="points">
              <mxPoint x="1190" y="530" />
            </Array>
          </mxGeometry>
        </mxCell>
        <mxCell id="ydcpMR5mMKtuc0FMqWmv-94" value="" style="rounded=0;whiteSpace=wrap;html=1;" parent="1" vertex="1">
          <mxGeometry x="1540" y="390" width="240" height="330" as="geometry" />
        </mxCell>
        <mxCell id="ydcpMR5mMKtuc0FMqWmv-95" value="&lt;font face=&quot;Lucida Console&quot;&gt;FC_NEURON_LOADER&lt;/font&gt;" style="rounded=1;whiteSpace=wrap;html=1;" parent="1" vertex="1">
          <mxGeometry x="1540" y="390" width="240" height="20" as="geometry" />
        </mxCell>
        <mxCell id="ydcpMR5mMKtuc0FMqWmv-98" value="CONFIG" style="rounded=0;whiteSpace=wrap;html=1;" parent="1" vertex="1">
          <mxGeometry x="1570" y="430" width="180" height="20" as="geometry" />
        </mxCell>
        <mxCell id="ydcpMR5mMKtuc0FMqWmv-99" value="&lt;font face=&quot;Lucida Console&quot;&gt;FSM&lt;/font&gt;&lt;div&gt;&lt;font face=&quot;Lucida Console&quot;&gt;(CONTROL)&lt;/font&gt;&lt;/div&gt;" style="rounded=0;whiteSpace=wrap;html=1;" parent="1" vertex="1">
          <mxGeometry x="1570" y="450" width="180" height="40" as="geometry" />
        </mxCell>
        <mxCell id="ydcpMR5mMKtuc0FMqWmv-100" value="&lt;font face=&quot;Lucida Console&quot;&gt;BRAM_INTERFACE&lt;/font&gt;" style="rounded=0;whiteSpace=wrap;html=1;" parent="1" vertex="1">
          <mxGeometry x="1570" y="660" width="180" height="40" as="geometry" />
        </mxCell>
        <mxCell id="ydcpMR5mMKtuc0FMqWmv-101" value="&lt;font face=&quot;Lucida Console&quot;&gt;NEURON&lt;/font&gt;&lt;div&gt;&lt;font face=&quot;Lucida Console&quot;&gt;COUNTER&lt;/font&gt;&lt;/div&gt;" style="rounded=0;whiteSpace=wrap;html=1;" parent="1" vertex="1">
          <mxGeometry x="1670" y="560" width="80" height="30" as="geometry" />
        </mxCell>
        <mxCell id="ydcpMR5mMKtuc0FMqWmv-102" value="&lt;font face=&quot;Lucida Console&quot;&gt;ADDR&lt;/font&gt;&lt;div&gt;&lt;font face=&quot;Lucida Console&quot;&gt;DECODE&lt;/font&gt;&lt;/div&gt;" style="rounded=0;whiteSpace=wrap;html=1;" parent="1" vertex="1">
          <mxGeometry x="1670" y="610" width="80" height="30" as="geometry" />
        </mxCell>
        <mxCell id="ydcpMR5mMKtuc0FMqWmv-103" value="" style="endArrow=classic;html=1;rounded=0;" parent="1" edge="1">
          <mxGeometry width="50" height="50" relative="1" as="geometry">
            <mxPoint x="1709.8" y="640" as="sourcePoint" />
            <mxPoint x="1709.8" y="660" as="targetPoint" />
          </mxGeometry>
        </mxCell>
        <mxCell id="ydcpMR5mMKtuc0FMqWmv-104" value="" style="endArrow=classic;html=1;rounded=0;" parent="1" edge="1">
          <mxGeometry width="50" height="50" relative="1" as="geometry">
            <mxPoint x="1709.8" y="590" as="sourcePoint" />
            <mxPoint x="1709.8" y="610" as="targetPoint" />
          </mxGeometry>
        </mxCell>
        <mxCell id="ydcpMR5mMKtuc0FMqWmv-113" value="" style="group" parent="1" vertex="1" connectable="0">
          <mxGeometry x="1570" y="560" width="80" height="30" as="geometry" />
        </mxCell>
        <mxCell id="ydcpMR5mMKtuc0FMqWmv-105" value="" style="endArrow=none;html=1;rounded=0;movable=1;resizable=1;rotatable=1;deletable=1;editable=1;locked=0;connectable=1;" parent="ydcpMR5mMKtuc0FMqWmv-113" edge="1">
          <mxGeometry width="50" height="50" relative="1" as="geometry">
            <mxPoint x="80" y="30" as="sourcePoint" />
            <mxPoint y="30" as="targetPoint" />
          </mxGeometry>
        </mxCell>
        <mxCell id="ydcpMR5mMKtuc0FMqWmv-106" value="" style="endArrow=none;html=1;rounded=0;movable=1;resizable=1;rotatable=1;deletable=1;editable=1;locked=0;connectable=1;" parent="ydcpMR5mMKtuc0FMqWmv-113" edge="1">
          <mxGeometry width="50" height="50" relative="1" as="geometry">
            <mxPoint x="70" as="sourcePoint" />
            <mxPoint x="10" as="targetPoint" />
          </mxGeometry>
        </mxCell>
        <mxCell id="ydcpMR5mMKtuc0FMqWmv-107" value="" style="endArrow=none;html=1;rounded=0;movable=1;resizable=1;rotatable=1;deletable=1;editable=1;locked=0;connectable=1;" parent="ydcpMR5mMKtuc0FMqWmv-113" edge="1">
          <mxGeometry width="50" height="50" relative="1" as="geometry">
            <mxPoint y="30" as="sourcePoint" />
            <mxPoint x="10" as="targetPoint" />
          </mxGeometry>
        </mxCell>
        <mxCell id="ydcpMR5mMKtuc0FMqWmv-108" value="" style="endArrow=none;html=1;rounded=0;movable=1;resizable=1;rotatable=1;deletable=1;editable=1;locked=0;connectable=1;" parent="ydcpMR5mMKtuc0FMqWmv-113" edge="1">
          <mxGeometry width="50" height="50" relative="1" as="geometry">
            <mxPoint x="80" y="30" as="sourcePoint" />
            <mxPoint x="70" as="targetPoint" />
          </mxGeometry>
        </mxCell>
        <mxCell id="ydcpMR5mMKtuc0FMqWmv-110" value="MUX" style="rounded=0;whiteSpace=wrap;html=1;fontFamily=Lucida Console;fillColor=none;strokeColor=none;align=center;fontSize=12;movable=1;resizable=1;rotatable=1;deletable=1;editable=1;locked=0;connectable=1;" parent="ydcpMR5mMKtuc0FMqWmv-113" vertex="1">
          <mxGeometry x="10" y="5" width="60" height="20" as="geometry" />
        </mxCell>
        <mxCell id="ydcpMR5mMKtuc0FMqWmv-115" value="" style="endArrow=classic;html=1;rounded=0;" parent="1" edge="1">
          <mxGeometry width="50" height="50" relative="1" as="geometry">
            <mxPoint x="1670" y="574.93" as="sourcePoint" />
            <mxPoint x="1645" y="574.76" as="targetPoint" />
          </mxGeometry>
        </mxCell>
        <mxCell id="ydcpMR5mMKtuc0FMqWmv-116" value="" style="endArrow=classic;html=1;rounded=0;" parent="1" edge="1">
          <mxGeometry width="50" height="50" relative="1" as="geometry">
            <mxPoint x="1609.76" y="660" as="sourcePoint" />
            <mxPoint x="1609.76" y="590" as="targetPoint" />
          </mxGeometry>
        </mxCell>
        <mxCell id="ydcpMR5mMKtuc0FMqWmv-117" value="" style="endArrow=classic;html=1;rounded=0;entryX=1;entryY=0.5;entryDx=0;entryDy=0;" parent="1" target="ydcpMR5mMKtuc0FMqWmv-121" edge="1">
          <mxGeometry width="50" height="50" relative="1" as="geometry">
            <mxPoint x="1610" y="560" as="sourcePoint" />
            <mxPoint x="1520" y="520" as="targetPoint" />
            <Array as="points">
              <mxPoint x="1610" y="530" />
            </Array>
          </mxGeometry>
        </mxCell>
        <mxCell id="ydcpMR5mMKtuc0FMqWmv-118" value="&lt;font face=&quot;Lucida Console&quot;&gt;SYNAPSE MEMORY&lt;/font&gt;" style="rounded=0;whiteSpace=wrap;html=1;" parent="1" vertex="1">
          <mxGeometry x="1050" y="740" width="180" height="40" as="geometry" />
        </mxCell>
        <mxCell id="ydcpMR5mMKtuc0FMqWmv-119" value="&lt;font face=&quot;Lucida Console&quot;&gt;NEURON MEMORY&lt;/font&gt;" style="rounded=0;whiteSpace=wrap;html=1;" parent="1" vertex="1">
          <mxGeometry x="1570" y="740" width="180" height="40" as="geometry" />
        </mxCell>
        <mxCell id="ydcpMR5mMKtuc0FMqWmv-120" value="&lt;font face=&quot;Lucida Console&quot;&gt;FC_LIF&lt;/font&gt;" style="rounded=1;whiteSpace=wrap;html=1;" parent="1" vertex="1">
          <mxGeometry x="1300" y="390" width="200" height="20" as="geometry" />
        </mxCell>
        <mxCell id="ydcpMR5mMKtuc0FMqWmv-144" style="edgeStyle=orthogonalEdgeStyle;rounded=0;orthogonalLoop=1;jettySize=auto;html=1;entryX=0.5;entryY=0;entryDx=0;entryDy=0;fontFamily=Helvetica;fontSize=12;fontColor=default;" parent="1" source="ydcpMR5mMKtuc0FMqWmv-121" target="ydcpMR5mMKtuc0FMqWmv-129" edge="1">
          <mxGeometry relative="1" as="geometry" />
        </mxCell>
        <mxCell id="ydcpMR5mMKtuc0FMqWmv-121" value="&lt;font face=&quot;Lucida Console&quot;&gt;LIF&lt;/font&gt;" style="rounded=0;whiteSpace=wrap;html=1;" parent="1" vertex="1">
          <mxGeometry x="1320" y="510.5" width="160" height="40" as="geometry" />
        </mxCell>
        <mxCell id="ydcpMR5mMKtuc0FMqWmv-125" style="edgeStyle=orthogonalEdgeStyle;rounded=0;orthogonalLoop=1;jettySize=auto;html=1;entryX=0;entryY=0.5;entryDx=0;entryDy=0;fontFamily=Helvetica;fontSize=12;fontColor=default;" parent="1" source="ydcpMR5mMKtuc0FMqWmv-122" target="ydcpMR5mMKtuc0FMqWmv-99" edge="1">
          <mxGeometry relative="1" as="geometry" />
        </mxCell>
        <mxCell id="ydcpMR5mMKtuc0FMqWmv-126" style="edgeStyle=orthogonalEdgeStyle;rounded=0;orthogonalLoop=1;jettySize=auto;html=1;entryX=1;entryY=0.5;entryDx=0;entryDy=0;fontFamily=Helvetica;fontSize=12;fontColor=default;" parent="1" source="ydcpMR5mMKtuc0FMqWmv-122" target="ydcpMR5mMKtuc0FMqWmv-56" edge="1">
          <mxGeometry relative="1" as="geometry" />
        </mxCell>
        <mxCell id="ydcpMR5mMKtuc0FMqWmv-122" value="&lt;font face=&quot;Lucida Console&quot;&gt;LOCKSTEP&lt;/font&gt;" style="rounded=0;whiteSpace=wrap;html=1;" parent="1" vertex="1">
          <mxGeometry x="1320" y="430" width="160" height="40" as="geometry" />
        </mxCell>
        <mxCell id="ydcpMR5mMKtuc0FMqWmv-128" value="" style="rounded=0;whiteSpace=wrap;html=1;" parent="1" vertex="1">
          <mxGeometry x="1300" y="590" width="200" height="130" as="geometry" />
        </mxCell>
        <mxCell id="ydcpMR5mMKtuc0FMqWmv-129" value="&lt;font face=&quot;Lucida Console&quot;&gt;FC_NEURON_WRITER&lt;/font&gt;" style="rounded=1;whiteSpace=wrap;html=1;" parent="1" vertex="1">
          <mxGeometry x="1300" y="590" width="200" height="20" as="geometry" />
        </mxCell>
        <mxCell id="ydcpMR5mMKtuc0FMqWmv-132" value="" style="endArrow=classic;html=1;rounded=0;fontFamily=Helvetica;fontSize=12;fontColor=default;entryX=0.25;entryY=1;entryDx=0;entryDy=0;exitX=0.25;exitY=0;exitDx=0;exitDy=0;" parent="1" edge="1">
          <mxGeometry width="50" height="50" relative="1" as="geometry">
            <mxPoint x="1659.83" y="740" as="sourcePoint" />
            <mxPoint x="1659.83" y="700" as="targetPoint" />
          </mxGeometry>
        </mxCell>
        <mxCell id="ydcpMR5mMKtuc0FMqWmv-134" value="" style="endArrow=classic;html=1;rounded=0;fontFamily=Helvetica;fontSize=12;fontColor=default;entryX=0.25;entryY=1;entryDx=0;entryDy=0;exitX=0.25;exitY=0;exitDx=0;exitDy=0;" parent="1" edge="1">
          <mxGeometry width="50" height="50" relative="1" as="geometry">
            <mxPoint x="1139.67" y="740" as="sourcePoint" />
            <mxPoint x="1139.67" y="700" as="targetPoint" />
          </mxGeometry>
        </mxCell>
        <mxCell id="ydcpMR5mMKtuc0FMqWmv-138" value="&lt;font face=&quot;Lucida Console&quot;&gt;BRAM_INTERFACE&lt;/font&gt;" style="rounded=0;whiteSpace=wrap;html=1;" parent="1" vertex="1">
          <mxGeometry x="1310" y="660" width="180" height="40" as="geometry" />
        </mxCell>
        <mxCell id="ydcpMR5mMKtuc0FMqWmv-140" value="" style="endArrow=classic;html=1;rounded=0;fontFamily=Helvetica;fontSize=12;fontColor=default;" parent="1" edge="1">
          <mxGeometry width="50" height="50" relative="1" as="geometry">
            <mxPoint x="1400" y="700" as="sourcePoint" />
            <mxPoint x="1570" y="760" as="targetPoint" />
            <Array as="points">
              <mxPoint x="1400" y="760" />
            </Array>
          </mxGeometry>
        </mxCell>
        <mxCell id="ydcpMR5mMKtuc0FMqWmv-142" value="&lt;font face=&quot;Lucida Console&quot;&gt;NEXT_STATE&lt;/font&gt;" style="rounded=0;whiteSpace=wrap;html=1;fillColor=#f5f5f5;fontColor=#333333;strokeColor=#666666;" parent="1" vertex="1">
          <mxGeometry x="1310" y="620" width="180" height="30" as="geometry" />
        </mxCell>
        <mxCell id="ydcpMR5mMKtuc0FMqWmv-145" value="&lt;font face=&quot;Lucida Console&quot;&gt;WEIGHT&lt;/font&gt;" style="rounded=0;whiteSpace=wrap;html=1;fontFamily=Lucida Console;fillColor=none;strokeColor=none;align=left;fontSize=10;" parent="1" vertex="1">
          <mxGeometry x="1190" y="510.5" width="60" height="20" as="geometry" />
        </mxCell>
        <mxCell id="ydcpMR5mMKtuc0FMqWmv-146" value="&lt;font face=&quot;Lucida Console&quot;&gt;STATE&lt;/font&gt;" style="rounded=0;whiteSpace=wrap;html=1;fontFamily=Lucida Console;fillColor=none;strokeColor=none;align=right;fontSize=10;" parent="1" vertex="1">
          <mxGeometry x="1550" y="510.5" width="60" height="20" as="geometry" />
        </mxCell>
        <mxCell id="ydcpMR5mMKtuc0FMqWmv-147" value="&lt;font face=&quot;Lucida Console&quot;&gt;NEXT_STATE&lt;/font&gt;" style="rounded=0;whiteSpace=wrap;html=1;fontFamily=Lucida Console;fillColor=none;strokeColor=none;align=left;fontSize=10;" parent="1" vertex="1">
          <mxGeometry x="1400" y="550" width="60" height="20" as="geometry" />
        </mxCell>
        <mxCell id="ydcpMR5mMKtuc0FMqWmv-148" value="CONFIG" style="rounded=0;whiteSpace=wrap;html=1;" parent="1" vertex="1">
          <mxGeometry x="1320" y="490.5" width="160" height="20" as="geometry" />
        </mxCell>
        <mxCell id="ydcpMR5mMKtuc0FMqWmv-150" value="" style="rounded=0;whiteSpace=wrap;html=1;pointerEvents=0;align=center;verticalAlign=top;fontFamily=Helvetica;fontSize=12;fontColor=default;fillColor=default;gradientColor=none;glass=0;" parent="1" vertex="1">
          <mxGeometry x="2720" y="540" width="80" height="50" as="geometry" />
        </mxCell>
        <mxCell id="ydcpMR5mMKtuc0FMqWmv-151" value="&lt;font style=&quot;font-size: 10px;&quot; face=&quot;Lucida Console&quot;&gt;FC_1&lt;/font&gt;" style="rounded=1;whiteSpace=wrap;html=1;" parent="1" vertex="1">
          <mxGeometry x="2720" y="540" width="80" height="20" as="geometry" />
        </mxCell>
        <mxCell id="ydcpMR5mMKtuc0FMqWmv-153" value="&lt;font face=&quot;Lucida Console&quot;&gt;TSTEP: 1&lt;/font&gt;" style="rounded=0;whiteSpace=wrap;html=1;pointerEvents=0;align=center;verticalAlign=middle;fontFamily=Helvetica;fontSize=12;fontColor=default;fillColor=none;gradientColor=none;glass=0;strokeColor=none;" parent="1" vertex="1">
          <mxGeometry x="2730" y="560" width="60" height="30" as="geometry" />
        </mxCell>
        <mxCell id="ydcpMR5mMKtuc0FMqWmv-198" value="&lt;font face=&quot;Lucida Console&quot;&gt;Accumulating&lt;/font&gt;" style="rounded=0;whiteSpace=wrap;html=1;fontFamily=Lucida Console;fillColor=none;strokeColor=none;align=center;fontSize=10;" parent="1" vertex="1">
          <mxGeometry x="2720" y="520" width="80" height="20" as="geometry" />
        </mxCell>
        <mxCell id="ydcpMR5mMKtuc0FMqWmv-855" value="" style="rounded=0;whiteSpace=wrap;html=1;pointerEvents=0;align=center;verticalAlign=top;fontFamily=Helvetica;fontSize=12;fontColor=default;fillColor=default;gradientColor=none;" parent="1" vertex="1">
          <mxGeometry x="1020" y="-20" width="600" height="340" as="geometry" />
        </mxCell>
        <mxCell id="ydcpMR5mMKtuc0FMqWmv-857" value="&lt;font face=&quot;Lucida Console&quot;&gt;&lt;b&gt;Zynq&lt;/b&gt;&lt;/font&gt;" style="rounded=1;whiteSpace=wrap;html=1;" parent="1" vertex="1">
          <mxGeometry x="1020" y="-20" width="80" height="20" as="geometry" />
        </mxCell>
        <mxCell id="ydcpMR5mMKtuc0FMqWmv-858" value="" style="rounded=0;whiteSpace=wrap;html=1;pointerEvents=0;align=center;verticalAlign=top;fontFamily=Helvetica;fontSize=12;fontColor=default;fillColor=default;gradientColor=none;" parent="1" vertex="1">
          <mxGeometry x="1040" y="160" width="560" height="120" as="geometry" />
        </mxCell>
        <mxCell id="ydcpMR5mMKtuc0FMqWmv-859" value="&lt;font face=&quot;Lucida Console&quot;&gt;&lt;b&gt;Processing&lt;/b&gt;&lt;/font&gt;&lt;div&gt;&lt;font face=&quot;Lucida Console&quot;&gt;&lt;b&gt;System&lt;/b&gt;&lt;/font&gt;&lt;/div&gt;" style="rounded=1;whiteSpace=wrap;html=1;" parent="1" vertex="1">
          <mxGeometry x="1040" y="160" width="90" height="40" as="geometry" />
        </mxCell>
        <mxCell id="ydcpMR5mMKtuc0FMqWmv-860" value="" style="rounded=0;whiteSpace=wrap;html=1;pointerEvents=0;align=center;verticalAlign=top;fontFamily=Helvetica;fontSize=12;fontColor=default;fillColor=default;gradientColor=none;" parent="1" vertex="1">
          <mxGeometry x="1040" y="10" width="560" height="130" as="geometry" />
        </mxCell>
        <mxCell id="ydcpMR5mMKtuc0FMqWmv-861" value="&lt;font face=&quot;Lucida Console&quot;&gt;&lt;b&gt;Programming&lt;/b&gt;&lt;/font&gt;&lt;div&gt;&lt;font face=&quot;Lucida Console&quot;&gt;&lt;b&gt;Logic&lt;/b&gt;&lt;/font&gt;&lt;/div&gt;" style="rounded=1;whiteSpace=wrap;html=1;" parent="1" vertex="1">
          <mxGeometry x="1040" y="10" width="90" height="40" as="geometry" />
        </mxCell>
        <mxCell id="ydcpMR5mMKtuc0FMqWmv-866" style="edgeStyle=orthogonalEdgeStyle;rounded=0;orthogonalLoop=1;jettySize=auto;html=1;entryX=0.5;entryY=1;entryDx=0;entryDy=0;fontFamily=Helvetica;fontSize=12;fontColor=default;" parent="1" source="ydcpMR5mMKtuc0FMqWmv-863" target="ydcpMR5mMKtuc0FMqWmv-865" edge="1">
          <mxGeometry relative="1" as="geometry" />
        </mxCell>
        <mxCell id="ydcpMR5mMKtuc0FMqWmv-867" value="DVS" style="edgeLabel;html=1;align=center;verticalAlign=middle;resizable=0;points=[];pointerEvents=0;fontFamily=Helvetica;fontSize=12;fontColor=default;fillColor=none;gradientColor=none;" parent="ydcpMR5mMKtuc0FMqWmv-866" vertex="1" connectable="0">
          <mxGeometry x="0.128" y="-1" relative="1" as="geometry">
            <mxPoint as="offset" />
          </mxGeometry>
        </mxCell>
        <mxCell id="ydcpMR5mMKtuc0FMqWmv-863" value="USB" style="rounded=0;whiteSpace=wrap;html=1;pointerEvents=0;align=center;verticalAlign=middle;fontFamily=Helvetica;fontSize=12;fontColor=default;fillColor=default;gradientColor=none;" parent="1" vertex="1">
          <mxGeometry x="1180" y="300" width="50" height="20" as="geometry" />
        </mxCell>
        <mxCell id="ydcpMR5mMKtuc0FMqWmv-871" style="edgeStyle=orthogonalEdgeStyle;rounded=0;orthogonalLoop=1;jettySize=auto;html=1;entryX=0.5;entryY=1;entryDx=0;entryDy=0;fontFamily=Helvetica;fontSize=12;fontColor=default;" parent="1" source="ydcpMR5mMKtuc0FMqWmv-865" target="ydcpMR5mMKtuc0FMqWmv-868" edge="1">
          <mxGeometry relative="1" as="geometry" />
        </mxCell>
        <mxCell id="ydcpMR5mMKtuc0FMqWmv-872" value="Write Events" style="edgeLabel;html=1;align=center;verticalAlign=middle;resizable=0;points=[];pointerEvents=0;fontFamily=Helvetica;fontSize=12;fontColor=default;fillColor=none;gradientColor=none;" parent="ydcpMR5mMKtuc0FMqWmv-871" vertex="1" connectable="0">
          <mxGeometry x="0.225" relative="1" as="geometry">
            <mxPoint y="-11" as="offset" />
          </mxGeometry>
        </mxCell>
        <mxCell id="ydcpMR5mMKtuc0FMqWmv-865" value="&lt;font face=&quot;Lucida Console&quot;&gt;Core&lt;/font&gt;" style="rounded=1;whiteSpace=wrap;html=1;" parent="1" vertex="1">
          <mxGeometry x="1160" y="190" width="90" height="40" as="geometry" />
        </mxCell>
        <mxCell id="ydcpMR5mMKtuc0FMqWmv-873" style="edgeStyle=orthogonalEdgeStyle;rounded=0;orthogonalLoop=1;jettySize=auto;html=1;entryX=0;entryY=0.5;entryDx=0;entryDy=0;fontFamily=Helvetica;fontSize=12;fontColor=default;" parent="1" source="ydcpMR5mMKtuc0FMqWmv-868" target="ydcpMR5mMKtuc0FMqWmv-869" edge="1">
          <mxGeometry relative="1" as="geometry" />
        </mxCell>
        <mxCell id="ydcpMR5mMKtuc0FMqWmv-868" value="&lt;font face=&quot;Lucida Console&quot;&gt;Input FIFO&lt;/font&gt;" style="rounded=1;whiteSpace=wrap;html=1;" parent="1" vertex="1">
          <mxGeometry x="1160" y="40" width="90" height="40" as="geometry" />
        </mxCell>
        <mxCell id="ydcpMR5mMKtuc0FMqWmv-874" style="edgeStyle=orthogonalEdgeStyle;rounded=0;orthogonalLoop=1;jettySize=auto;html=1;entryX=0;entryY=0.5;entryDx=0;entryDy=0;fontFamily=Helvetica;fontSize=12;fontColor=default;" parent="1" source="ydcpMR5mMKtuc0FMqWmv-869" target="ydcpMR5mMKtuc0FMqWmv-870" edge="1">
          <mxGeometry relative="1" as="geometry" />
        </mxCell>
        <mxCell id="ydcpMR5mMKtuc0FMqWmv-869" value="&lt;font face=&quot;Lucida Console&quot;&gt;FENRIR&lt;/font&gt;" style="rounded=1;whiteSpace=wrap;html=1;" parent="1" vertex="1">
          <mxGeometry x="1310" y="40" width="90" height="40" as="geometry" />
        </mxCell>
        <mxCell id="ydcpMR5mMKtuc0FMqWmv-875" style="edgeStyle=orthogonalEdgeStyle;rounded=0;orthogonalLoop=1;jettySize=auto;html=1;entryX=1;entryY=0.5;entryDx=0;entryDy=0;fontFamily=Helvetica;fontSize=12;fontColor=default;" parent="1" source="ydcpMR5mMKtuc0FMqWmv-870" target="ydcpMR5mMKtuc0FMqWmv-865" edge="1">
          <mxGeometry relative="1" as="geometry">
            <Array as="points">
              <mxPoint x="1515" y="210" />
            </Array>
          </mxGeometry>
        </mxCell>
        <mxCell id="ydcpMR5mMKtuc0FMqWmv-870" value="&lt;font face=&quot;Lucida Console&quot;&gt;OUTPUT REGISTERS&lt;/font&gt;" style="rounded=1;whiteSpace=wrap;html=1;" parent="1" vertex="1">
          <mxGeometry x="1470" y="40" width="90" height="40" as="geometry" />
        </mxCell>
        <mxCell id="n0ySLByZhCP7fiCknB2w-1" value="" style="rounded=0;whiteSpace=wrap;html=1;" vertex="1" parent="1">
          <mxGeometry x="2080" y="240" width="80" height="80" as="geometry" />
        </mxCell>
        <mxCell id="n0ySLByZhCP7fiCknB2w-2" value="&lt;font face=&quot;Lucida Console&quot;&gt;DVS&lt;/font&gt;" style="rounded=0;whiteSpace=wrap;html=1;fillColor=none;strokeColor=none;" vertex="1" parent="1">
          <mxGeometry x="2080" y="220" width="80" height="20" as="geometry" />
        </mxCell>
        <mxCell id="n0ySLByZhCP7fiCknB2w-5" value="" style="rounded=0;whiteSpace=wrap;html=1;" vertex="1" parent="1">
          <mxGeometry x="2080" y="240" width="10" height="10" as="geometry" />
        </mxCell>
        <mxCell id="n0ySLByZhCP7fiCknB2w-6" value="" style="rounded=0;whiteSpace=wrap;html=1;" vertex="1" parent="1">
          <mxGeometry x="2090" y="240" width="10" height="10" as="geometry" />
        </mxCell>
        <mxCell id="n0ySLByZhCP7fiCknB2w-7" value="" style="rounded=0;whiteSpace=wrap;html=1;" vertex="1" parent="1">
          <mxGeometry x="2100" y="240" width="10" height="10" as="geometry" />
        </mxCell>
        <mxCell id="n0ySLByZhCP7fiCknB2w-8" value="" style="rounded=0;whiteSpace=wrap;html=1;" vertex="1" parent="1">
          <mxGeometry x="2110" y="240" width="10" height="10" as="geometry" />
        </mxCell>
        <mxCell id="n0ySLByZhCP7fiCknB2w-9" value="" style="rounded=0;whiteSpace=wrap;html=1;" vertex="1" parent="1">
          <mxGeometry x="2120" y="240" width="10" height="10" as="geometry" />
        </mxCell>
        <mxCell id="n0ySLByZhCP7fiCknB2w-10" value="" style="rounded=0;whiteSpace=wrap;html=1;" vertex="1" parent="1">
          <mxGeometry x="2130" y="240" width="10" height="10" as="geometry" />
        </mxCell>
        <mxCell id="n0ySLByZhCP7fiCknB2w-11" value="" style="rounded=0;whiteSpace=wrap;html=1;" vertex="1" parent="1">
          <mxGeometry x="2140" y="240" width="10" height="10" as="geometry" />
        </mxCell>
        <mxCell id="n0ySLByZhCP7fiCknB2w-12" value="" style="rounded=0;whiteSpace=wrap;html=1;" vertex="1" parent="1">
          <mxGeometry x="2150" y="240" width="10" height="10" as="geometry" />
        </mxCell>
        <mxCell id="n0ySLByZhCP7fiCknB2w-13" value="" style="rounded=0;whiteSpace=wrap;html=1;" vertex="1" parent="1">
          <mxGeometry x="2080" y="250" width="10" height="10" as="geometry" />
        </mxCell>
        <mxCell id="n0ySLByZhCP7fiCknB2w-14" value="" style="rounded=0;whiteSpace=wrap;html=1;" vertex="1" parent="1">
          <mxGeometry x="2090" y="250" width="10" height="10" as="geometry" />
        </mxCell>
        <mxCell id="n0ySLByZhCP7fiCknB2w-15" value="" style="rounded=0;whiteSpace=wrap;html=1;" vertex="1" parent="1">
          <mxGeometry x="2100" y="250" width="10" height="10" as="geometry" />
        </mxCell>
        <mxCell id="n0ySLByZhCP7fiCknB2w-16" value="" style="rounded=0;whiteSpace=wrap;html=1;" vertex="1" parent="1">
          <mxGeometry x="2110" y="250" width="10" height="10" as="geometry" />
        </mxCell>
        <mxCell id="n0ySLByZhCP7fiCknB2w-17" value="" style="rounded=0;whiteSpace=wrap;html=1;" vertex="1" parent="1">
          <mxGeometry x="2120" y="250" width="10" height="10" as="geometry" />
        </mxCell>
        <mxCell id="n0ySLByZhCP7fiCknB2w-18" value="" style="rounded=0;whiteSpace=wrap;html=1;" vertex="1" parent="1">
          <mxGeometry x="2130" y="250" width="10" height="10" as="geometry" />
        </mxCell>
        <mxCell id="n0ySLByZhCP7fiCknB2w-19" value="" style="rounded=0;whiteSpace=wrap;html=1;" vertex="1" parent="1">
          <mxGeometry x="2140" y="250" width="10" height="10" as="geometry" />
        </mxCell>
        <mxCell id="n0ySLByZhCP7fiCknB2w-20" value="" style="rounded=0;whiteSpace=wrap;html=1;" vertex="1" parent="1">
          <mxGeometry x="2150" y="250" width="10" height="10" as="geometry" />
        </mxCell>
        <mxCell id="n0ySLByZhCP7fiCknB2w-21" value="" style="rounded=0;whiteSpace=wrap;html=1;" vertex="1" parent="1">
          <mxGeometry x="2080" y="260" width="10" height="10" as="geometry" />
        </mxCell>
        <mxCell id="n0ySLByZhCP7fiCknB2w-22" value="" style="rounded=0;whiteSpace=wrap;html=1;" vertex="1" parent="1">
          <mxGeometry x="2090" y="260" width="10" height="10" as="geometry" />
        </mxCell>
        <mxCell id="n0ySLByZhCP7fiCknB2w-23" value="" style="rounded=0;whiteSpace=wrap;html=1;" vertex="1" parent="1">
          <mxGeometry x="2100" y="260" width="10" height="10" as="geometry" />
        </mxCell>
        <mxCell id="n0ySLByZhCP7fiCknB2w-24" value="" style="rounded=0;whiteSpace=wrap;html=1;" vertex="1" parent="1">
          <mxGeometry x="2110" y="260" width="10" height="10" as="geometry" />
        </mxCell>
        <mxCell id="n0ySLByZhCP7fiCknB2w-25" value="" style="rounded=0;whiteSpace=wrap;html=1;" vertex="1" parent="1">
          <mxGeometry x="2120" y="260" width="10" height="10" as="geometry" />
        </mxCell>
        <mxCell id="n0ySLByZhCP7fiCknB2w-26" value="" style="rounded=0;whiteSpace=wrap;html=1;" vertex="1" parent="1">
          <mxGeometry x="2130" y="260" width="10" height="10" as="geometry" />
        </mxCell>
        <mxCell id="n0ySLByZhCP7fiCknB2w-27" value="" style="rounded=0;whiteSpace=wrap;html=1;" vertex="1" parent="1">
          <mxGeometry x="2140" y="260" width="10" height="10" as="geometry" />
        </mxCell>
        <mxCell id="n0ySLByZhCP7fiCknB2w-28" value="" style="rounded=0;whiteSpace=wrap;html=1;" vertex="1" parent="1">
          <mxGeometry x="2150" y="260" width="10" height="10" as="geometry" />
        </mxCell>
        <mxCell id="n0ySLByZhCP7fiCknB2w-29" value="" style="rounded=0;whiteSpace=wrap;html=1;" vertex="1" parent="1">
          <mxGeometry x="2080" y="270" width="10" height="10" as="geometry" />
        </mxCell>
        <mxCell id="n0ySLByZhCP7fiCknB2w-30" value="" style="rounded=0;whiteSpace=wrap;html=1;" vertex="1" parent="1">
          <mxGeometry x="2090" y="270" width="10" height="10" as="geometry" />
        </mxCell>
        <mxCell id="n0ySLByZhCP7fiCknB2w-31" value="" style="rounded=0;whiteSpace=wrap;html=1;" vertex="1" parent="1">
          <mxGeometry x="2100" y="270" width="10" height="10" as="geometry" />
        </mxCell>
        <mxCell id="n0ySLByZhCP7fiCknB2w-32" value="" style="rounded=0;whiteSpace=wrap;html=1;" vertex="1" parent="1">
          <mxGeometry x="2110" y="270" width="10" height="10" as="geometry" />
        </mxCell>
        <mxCell id="n0ySLByZhCP7fiCknB2w-33" value="" style="rounded=0;whiteSpace=wrap;html=1;" vertex="1" parent="1">
          <mxGeometry x="2120" y="270" width="10" height="10" as="geometry" />
        </mxCell>
        <mxCell id="n0ySLByZhCP7fiCknB2w-34" value="" style="rounded=0;whiteSpace=wrap;html=1;" vertex="1" parent="1">
          <mxGeometry x="2130" y="270" width="10" height="10" as="geometry" />
        </mxCell>
        <mxCell id="n0ySLByZhCP7fiCknB2w-35" value="" style="rounded=0;whiteSpace=wrap;html=1;" vertex="1" parent="1">
          <mxGeometry x="2140" y="270" width="10" height="10" as="geometry" />
        </mxCell>
        <mxCell id="n0ySLByZhCP7fiCknB2w-36" value="" style="rounded=0;whiteSpace=wrap;html=1;" vertex="1" parent="1">
          <mxGeometry x="2150" y="270" width="10" height="10" as="geometry" />
        </mxCell>
        <mxCell id="n0ySLByZhCP7fiCknB2w-37" value="" style="rounded=0;whiteSpace=wrap;html=1;" vertex="1" parent="1">
          <mxGeometry x="2080" y="280" width="10" height="10" as="geometry" />
        </mxCell>
        <mxCell id="n0ySLByZhCP7fiCknB2w-38" value="" style="rounded=0;whiteSpace=wrap;html=1;" vertex="1" parent="1">
          <mxGeometry x="2090" y="280" width="10" height="10" as="geometry" />
        </mxCell>
        <mxCell id="n0ySLByZhCP7fiCknB2w-39" value="" style="rounded=0;whiteSpace=wrap;html=1;" vertex="1" parent="1">
          <mxGeometry x="2100" y="280" width="10" height="10" as="geometry" />
        </mxCell>
        <mxCell id="n0ySLByZhCP7fiCknB2w-40" value="" style="rounded=0;whiteSpace=wrap;html=1;" vertex="1" parent="1">
          <mxGeometry x="2110" y="280" width="10" height="10" as="geometry" />
        </mxCell>
        <mxCell id="n0ySLByZhCP7fiCknB2w-41" value="" style="rounded=0;whiteSpace=wrap;html=1;" vertex="1" parent="1">
          <mxGeometry x="2120" y="280" width="10" height="10" as="geometry" />
        </mxCell>
        <mxCell id="n0ySLByZhCP7fiCknB2w-42" value="" style="rounded=0;whiteSpace=wrap;html=1;" vertex="1" parent="1">
          <mxGeometry x="2130" y="280" width="10" height="10" as="geometry" />
        </mxCell>
        <mxCell id="n0ySLByZhCP7fiCknB2w-43" value="" style="rounded=0;whiteSpace=wrap;html=1;" vertex="1" parent="1">
          <mxGeometry x="2140" y="280" width="10" height="10" as="geometry" />
        </mxCell>
        <mxCell id="n0ySLByZhCP7fiCknB2w-44" value="" style="rounded=0;whiteSpace=wrap;html=1;" vertex="1" parent="1">
          <mxGeometry x="2150" y="280" width="10" height="10" as="geometry" />
        </mxCell>
        <mxCell id="n0ySLByZhCP7fiCknB2w-45" value="" style="rounded=0;whiteSpace=wrap;html=1;" vertex="1" parent="1">
          <mxGeometry x="2080" y="290" width="10" height="10" as="geometry" />
        </mxCell>
        <mxCell id="n0ySLByZhCP7fiCknB2w-46" value="" style="rounded=0;whiteSpace=wrap;html=1;" vertex="1" parent="1">
          <mxGeometry x="2090" y="290" width="10" height="10" as="geometry" />
        </mxCell>
        <mxCell id="n0ySLByZhCP7fiCknB2w-47" value="" style="rounded=0;whiteSpace=wrap;html=1;" vertex="1" parent="1">
          <mxGeometry x="2100" y="290" width="10" height="10" as="geometry" />
        </mxCell>
        <mxCell id="n0ySLByZhCP7fiCknB2w-48" value="" style="rounded=0;whiteSpace=wrap;html=1;" vertex="1" parent="1">
          <mxGeometry x="2110" y="290" width="10" height="10" as="geometry" />
        </mxCell>
        <mxCell id="n0ySLByZhCP7fiCknB2w-49" value="" style="rounded=0;whiteSpace=wrap;html=1;" vertex="1" parent="1">
          <mxGeometry x="2120" y="290" width="10" height="10" as="geometry" />
        </mxCell>
        <mxCell id="n0ySLByZhCP7fiCknB2w-50" value="" style="rounded=0;whiteSpace=wrap;html=1;" vertex="1" parent="1">
          <mxGeometry x="2130" y="290" width="10" height="10" as="geometry" />
        </mxCell>
        <mxCell id="n0ySLByZhCP7fiCknB2w-51" value="" style="rounded=0;whiteSpace=wrap;html=1;" vertex="1" parent="1">
          <mxGeometry x="2140" y="290" width="10" height="10" as="geometry" />
        </mxCell>
        <mxCell id="n0ySLByZhCP7fiCknB2w-52" value="" style="rounded=0;whiteSpace=wrap;html=1;" vertex="1" parent="1">
          <mxGeometry x="2150" y="290" width="10" height="10" as="geometry" />
        </mxCell>
        <mxCell id="n0ySLByZhCP7fiCknB2w-53" value="" style="rounded=0;whiteSpace=wrap;html=1;" vertex="1" parent="1">
          <mxGeometry x="2080" y="300" width="10" height="10" as="geometry" />
        </mxCell>
        <mxCell id="n0ySLByZhCP7fiCknB2w-54" value="" style="rounded=0;whiteSpace=wrap;html=1;" vertex="1" parent="1">
          <mxGeometry x="2090" y="300" width="10" height="10" as="geometry" />
        </mxCell>
        <mxCell id="n0ySLByZhCP7fiCknB2w-55" value="" style="rounded=0;whiteSpace=wrap;html=1;" vertex="1" parent="1">
          <mxGeometry x="2100" y="300" width="10" height="10" as="geometry" />
        </mxCell>
        <mxCell id="n0ySLByZhCP7fiCknB2w-56" value="" style="rounded=0;whiteSpace=wrap;html=1;" vertex="1" parent="1">
          <mxGeometry x="2110" y="300" width="10" height="10" as="geometry" />
        </mxCell>
        <mxCell id="n0ySLByZhCP7fiCknB2w-57" value="" style="rounded=0;whiteSpace=wrap;html=1;" vertex="1" parent="1">
          <mxGeometry x="2120" y="300" width="10" height="10" as="geometry" />
        </mxCell>
        <mxCell id="n0ySLByZhCP7fiCknB2w-58" value="" style="rounded=0;whiteSpace=wrap;html=1;" vertex="1" parent="1">
          <mxGeometry x="2130" y="300" width="10" height="10" as="geometry" />
        </mxCell>
        <mxCell id="n0ySLByZhCP7fiCknB2w-59" value="" style="rounded=0;whiteSpace=wrap;html=1;" vertex="1" parent="1">
          <mxGeometry x="2140" y="300" width="10" height="10" as="geometry" />
        </mxCell>
        <mxCell id="n0ySLByZhCP7fiCknB2w-60" value="" style="rounded=0;whiteSpace=wrap;html=1;" vertex="1" parent="1">
          <mxGeometry x="2150" y="300" width="10" height="10" as="geometry" />
        </mxCell>
        <mxCell id="n0ySLByZhCP7fiCknB2w-61" value="" style="rounded=0;whiteSpace=wrap;html=1;" vertex="1" parent="1">
          <mxGeometry x="2080" y="310" width="10" height="10" as="geometry" />
        </mxCell>
        <mxCell id="n0ySLByZhCP7fiCknB2w-62" value="" style="rounded=0;whiteSpace=wrap;html=1;" vertex="1" parent="1">
          <mxGeometry x="2090" y="310" width="10" height="10" as="geometry" />
        </mxCell>
        <mxCell id="n0ySLByZhCP7fiCknB2w-63" value="" style="rounded=0;whiteSpace=wrap;html=1;" vertex="1" parent="1">
          <mxGeometry x="2100" y="310" width="10" height="10" as="geometry" />
        </mxCell>
        <mxCell id="n0ySLByZhCP7fiCknB2w-64" value="" style="rounded=0;whiteSpace=wrap;html=1;" vertex="1" parent="1">
          <mxGeometry x="2110" y="310" width="10" height="10" as="geometry" />
        </mxCell>
        <mxCell id="n0ySLByZhCP7fiCknB2w-65" value="" style="rounded=0;whiteSpace=wrap;html=1;" vertex="1" parent="1">
          <mxGeometry x="2120" y="310" width="10" height="10" as="geometry" />
        </mxCell>
        <mxCell id="n0ySLByZhCP7fiCknB2w-66" value="" style="rounded=0;whiteSpace=wrap;html=1;" vertex="1" parent="1">
          <mxGeometry x="2130" y="310" width="10" height="10" as="geometry" />
        </mxCell>
        <mxCell id="n0ySLByZhCP7fiCknB2w-67" value="" style="rounded=0;whiteSpace=wrap;html=1;" vertex="1" parent="1">
          <mxGeometry x="2140" y="310" width="10" height="10" as="geometry" />
        </mxCell>
        <mxCell id="n0ySLByZhCP7fiCknB2w-68" value="" style="rounded=0;whiteSpace=wrap;html=1;" vertex="1" parent="1">
          <mxGeometry x="2150" y="310" width="10" height="10" as="geometry" />
        </mxCell>
        <mxCell id="n0ySLByZhCP7fiCknB2w-69" value="" style="shape=curlyBracket;whiteSpace=wrap;html=1;rounded=1;labelPosition=left;verticalLabelPosition=middle;align=right;verticalAlign=middle;" vertex="1" parent="1">
          <mxGeometry x="2060" y="240" width="10" height="80" as="geometry" />
        </mxCell>
        <mxCell id="n0ySLByZhCP7fiCknB2w-71" value="" style="shape=curlyBracket;whiteSpace=wrap;html=1;rounded=1;flipH=1;labelPosition=right;verticalLabelPosition=middle;align=left;verticalAlign=middle;rotation=90;" vertex="1" parent="1">
          <mxGeometry x="2115.38" y="294.38" width="10" height="80.75" as="geometry" />
        </mxCell>
        <mxCell id="n0ySLByZhCP7fiCknB2w-73" value="&lt;font face=&quot;Lucida Console&quot;&gt;480&lt;/font&gt;" style="rounded=0;whiteSpace=wrap;html=1;fillColor=none;strokeColor=none;align=right;" vertex="1" parent="1">
          <mxGeometry x="1970" y="270" width="80" height="20" as="geometry" />
        </mxCell>
        <mxCell id="n0ySLByZhCP7fiCknB2w-74" value="&lt;font face=&quot;Lucida Console&quot;&gt;640&lt;/font&gt;" style="rounded=0;whiteSpace=wrap;html=1;fillColor=none;strokeColor=none;align=center;" vertex="1" parent="1">
          <mxGeometry x="2080" y="340" width="80" height="20" as="geometry" />
        </mxCell>
        <mxCell id="n0ySLByZhCP7fiCknB2w-75" value="" style="endArrow=classic;html=1;rounded=0;" edge="1" parent="1">
          <mxGeometry width="50" height="50" relative="1" as="geometry">
            <mxPoint x="2180" y="280" as="sourcePoint" />
            <mxPoint x="2240" y="280" as="targetPoint" />
          </mxGeometry>
        </mxCell>
        <mxCell id="n0ySLByZhCP7fiCknB2w-76" value="&lt;font style=&quot;font-size: 10px;&quot; face=&quot;Lucida Console&quot;&gt;Downscaling&lt;/font&gt;" style="rounded=0;whiteSpace=wrap;html=1;fillColor=none;strokeColor=none;" vertex="1" parent="1">
          <mxGeometry x="2170" y="250" width="80" height="20" as="geometry" />
        </mxCell>
        <mxCell id="n0ySLByZhCP7fiCknB2w-146" value="" style="rounded=0;whiteSpace=wrap;html=1;" vertex="1" parent="1">
          <mxGeometry x="2310" y="240" width="80" height="80" as="geometry" />
        </mxCell>
        <mxCell id="n0ySLByZhCP7fiCknB2w-147" value="&lt;font face=&quot;Lucida Console&quot;&gt;DVS&lt;/font&gt;" style="rounded=0;whiteSpace=wrap;html=1;fillColor=none;strokeColor=none;" vertex="1" parent="1">
          <mxGeometry x="2310" y="220" width="80" height="20" as="geometry" />
        </mxCell>
        <mxCell id="n0ySLByZhCP7fiCknB2w-148" value="" style="rounded=0;whiteSpace=wrap;html=1;" vertex="1" parent="1">
          <mxGeometry x="2310" y="240" width="10" height="10" as="geometry" />
        </mxCell>
        <mxCell id="n0ySLByZhCP7fiCknB2w-149" value="" style="rounded=0;whiteSpace=wrap;html=1;" vertex="1" parent="1">
          <mxGeometry x="2320" y="240" width="10" height="10" as="geometry" />
        </mxCell>
        <mxCell id="n0ySLByZhCP7fiCknB2w-150" value="" style="rounded=0;whiteSpace=wrap;html=1;" vertex="1" parent="1">
          <mxGeometry x="2330" y="240" width="10" height="10" as="geometry" />
        </mxCell>
        <mxCell id="n0ySLByZhCP7fiCknB2w-151" value="" style="rounded=0;whiteSpace=wrap;html=1;" vertex="1" parent="1">
          <mxGeometry x="2340" y="240" width="10" height="10" as="geometry" />
        </mxCell>
        <mxCell id="n0ySLByZhCP7fiCknB2w-152" value="" style="rounded=0;whiteSpace=wrap;html=1;" vertex="1" parent="1">
          <mxGeometry x="2350" y="240" width="10" height="10" as="geometry" />
        </mxCell>
        <mxCell id="n0ySLByZhCP7fiCknB2w-153" value="" style="rounded=0;whiteSpace=wrap;html=1;" vertex="1" parent="1">
          <mxGeometry x="2360" y="240" width="10" height="10" as="geometry" />
        </mxCell>
        <mxCell id="n0ySLByZhCP7fiCknB2w-154" value="" style="rounded=0;whiteSpace=wrap;html=1;" vertex="1" parent="1">
          <mxGeometry x="2370" y="240" width="10" height="10" as="geometry" />
        </mxCell>
        <mxCell id="n0ySLByZhCP7fiCknB2w-155" value="" style="rounded=0;whiteSpace=wrap;html=1;" vertex="1" parent="1">
          <mxGeometry x="2380" y="240" width="10" height="10" as="geometry" />
        </mxCell>
        <mxCell id="n0ySLByZhCP7fiCknB2w-156" value="" style="rounded=0;whiteSpace=wrap;html=1;" vertex="1" parent="1">
          <mxGeometry x="2310" y="250" width="10" height="10" as="geometry" />
        </mxCell>
        <mxCell id="n0ySLByZhCP7fiCknB2w-157" value="" style="rounded=0;whiteSpace=wrap;html=1;" vertex="1" parent="1">
          <mxGeometry x="2320" y="250" width="10" height="10" as="geometry" />
        </mxCell>
        <mxCell id="n0ySLByZhCP7fiCknB2w-158" value="" style="rounded=0;whiteSpace=wrap;html=1;" vertex="1" parent="1">
          <mxGeometry x="2330" y="250" width="10" height="10" as="geometry" />
        </mxCell>
        <mxCell id="n0ySLByZhCP7fiCknB2w-159" value="" style="rounded=0;whiteSpace=wrap;html=1;" vertex="1" parent="1">
          <mxGeometry x="2340" y="250" width="10" height="10" as="geometry" />
        </mxCell>
        <mxCell id="n0ySLByZhCP7fiCknB2w-160" value="" style="rounded=0;whiteSpace=wrap;html=1;" vertex="1" parent="1">
          <mxGeometry x="2350" y="250" width="10" height="10" as="geometry" />
        </mxCell>
        <mxCell id="n0ySLByZhCP7fiCknB2w-161" value="" style="rounded=0;whiteSpace=wrap;html=1;" vertex="1" parent="1">
          <mxGeometry x="2360" y="250" width="10" height="10" as="geometry" />
        </mxCell>
        <mxCell id="n0ySLByZhCP7fiCknB2w-162" value="" style="rounded=0;whiteSpace=wrap;html=1;" vertex="1" parent="1">
          <mxGeometry x="2370" y="250" width="10" height="10" as="geometry" />
        </mxCell>
        <mxCell id="n0ySLByZhCP7fiCknB2w-163" value="" style="rounded=0;whiteSpace=wrap;html=1;" vertex="1" parent="1">
          <mxGeometry x="2380" y="250" width="10" height="10" as="geometry" />
        </mxCell>
        <mxCell id="n0ySLByZhCP7fiCknB2w-164" value="" style="rounded=0;whiteSpace=wrap;html=1;" vertex="1" parent="1">
          <mxGeometry x="2310" y="260" width="10" height="10" as="geometry" />
        </mxCell>
        <mxCell id="n0ySLByZhCP7fiCknB2w-165" value="" style="rounded=0;whiteSpace=wrap;html=1;" vertex="1" parent="1">
          <mxGeometry x="2320" y="260" width="10" height="10" as="geometry" />
        </mxCell>
        <mxCell id="n0ySLByZhCP7fiCknB2w-166" value="" style="rounded=0;whiteSpace=wrap;html=1;" vertex="1" parent="1">
          <mxGeometry x="2330" y="260" width="10" height="10" as="geometry" />
        </mxCell>
        <mxCell id="n0ySLByZhCP7fiCknB2w-167" value="" style="rounded=0;whiteSpace=wrap;html=1;" vertex="1" parent="1">
          <mxGeometry x="2340" y="260" width="10" height="10" as="geometry" />
        </mxCell>
        <mxCell id="n0ySLByZhCP7fiCknB2w-168" value="" style="rounded=0;whiteSpace=wrap;html=1;" vertex="1" parent="1">
          <mxGeometry x="2350" y="260" width="10" height="10" as="geometry" />
        </mxCell>
        <mxCell id="n0ySLByZhCP7fiCknB2w-169" value="" style="rounded=0;whiteSpace=wrap;html=1;" vertex="1" parent="1">
          <mxGeometry x="2360" y="260" width="10" height="10" as="geometry" />
        </mxCell>
        <mxCell id="n0ySLByZhCP7fiCknB2w-170" value="" style="rounded=0;whiteSpace=wrap;html=1;" vertex="1" parent="1">
          <mxGeometry x="2370" y="260" width="10" height="10" as="geometry" />
        </mxCell>
        <mxCell id="n0ySLByZhCP7fiCknB2w-171" value="" style="rounded=0;whiteSpace=wrap;html=1;" vertex="1" parent="1">
          <mxGeometry x="2380" y="260" width="10" height="10" as="geometry" />
        </mxCell>
        <mxCell id="n0ySLByZhCP7fiCknB2w-172" value="" style="rounded=0;whiteSpace=wrap;html=1;" vertex="1" parent="1">
          <mxGeometry x="2310" y="270" width="10" height="10" as="geometry" />
        </mxCell>
        <mxCell id="n0ySLByZhCP7fiCknB2w-173" value="" style="rounded=0;whiteSpace=wrap;html=1;" vertex="1" parent="1">
          <mxGeometry x="2320" y="270" width="10" height="10" as="geometry" />
        </mxCell>
        <mxCell id="n0ySLByZhCP7fiCknB2w-174" value="" style="rounded=0;whiteSpace=wrap;html=1;" vertex="1" parent="1">
          <mxGeometry x="2330" y="270" width="10" height="10" as="geometry" />
        </mxCell>
        <mxCell id="n0ySLByZhCP7fiCknB2w-175" value="" style="rounded=0;whiteSpace=wrap;html=1;" vertex="1" parent="1">
          <mxGeometry x="2340" y="270" width="10" height="10" as="geometry" />
        </mxCell>
        <mxCell id="n0ySLByZhCP7fiCknB2w-176" value="" style="rounded=0;whiteSpace=wrap;html=1;" vertex="1" parent="1">
          <mxGeometry x="2350" y="270" width="10" height="10" as="geometry" />
        </mxCell>
        <mxCell id="n0ySLByZhCP7fiCknB2w-177" value="" style="rounded=0;whiteSpace=wrap;html=1;" vertex="1" parent="1">
          <mxGeometry x="2360" y="270" width="10" height="10" as="geometry" />
        </mxCell>
        <mxCell id="n0ySLByZhCP7fiCknB2w-178" value="" style="rounded=0;whiteSpace=wrap;html=1;" vertex="1" parent="1">
          <mxGeometry x="2370" y="270" width="10" height="10" as="geometry" />
        </mxCell>
        <mxCell id="n0ySLByZhCP7fiCknB2w-179" value="" style="rounded=0;whiteSpace=wrap;html=1;" vertex="1" parent="1">
          <mxGeometry x="2380" y="270" width="10" height="10" as="geometry" />
        </mxCell>
        <mxCell id="n0ySLByZhCP7fiCknB2w-180" value="" style="rounded=0;whiteSpace=wrap;html=1;" vertex="1" parent="1">
          <mxGeometry x="2310" y="280" width="10" height="10" as="geometry" />
        </mxCell>
        <mxCell id="n0ySLByZhCP7fiCknB2w-181" value="" style="rounded=0;whiteSpace=wrap;html=1;" vertex="1" parent="1">
          <mxGeometry x="2320" y="280" width="10" height="10" as="geometry" />
        </mxCell>
        <mxCell id="n0ySLByZhCP7fiCknB2w-182" value="" style="rounded=0;whiteSpace=wrap;html=1;" vertex="1" parent="1">
          <mxGeometry x="2330" y="280" width="10" height="10" as="geometry" />
        </mxCell>
        <mxCell id="n0ySLByZhCP7fiCknB2w-183" value="" style="rounded=0;whiteSpace=wrap;html=1;" vertex="1" parent="1">
          <mxGeometry x="2340" y="280" width="10" height="10" as="geometry" />
        </mxCell>
        <mxCell id="n0ySLByZhCP7fiCknB2w-184" value="" style="rounded=0;whiteSpace=wrap;html=1;" vertex="1" parent="1">
          <mxGeometry x="2350" y="280" width="10" height="10" as="geometry" />
        </mxCell>
        <mxCell id="n0ySLByZhCP7fiCknB2w-185" value="" style="rounded=0;whiteSpace=wrap;html=1;" vertex="1" parent="1">
          <mxGeometry x="2360" y="280" width="10" height="10" as="geometry" />
        </mxCell>
        <mxCell id="n0ySLByZhCP7fiCknB2w-186" value="" style="rounded=0;whiteSpace=wrap;html=1;" vertex="1" parent="1">
          <mxGeometry x="2370" y="280" width="10" height="10" as="geometry" />
        </mxCell>
        <mxCell id="n0ySLByZhCP7fiCknB2w-187" value="" style="rounded=0;whiteSpace=wrap;html=1;" vertex="1" parent="1">
          <mxGeometry x="2380" y="280" width="10" height="10" as="geometry" />
        </mxCell>
        <mxCell id="n0ySLByZhCP7fiCknB2w-188" value="" style="rounded=0;whiteSpace=wrap;html=1;" vertex="1" parent="1">
          <mxGeometry x="2310" y="290" width="10" height="10" as="geometry" />
        </mxCell>
        <mxCell id="n0ySLByZhCP7fiCknB2w-189" value="" style="rounded=0;whiteSpace=wrap;html=1;" vertex="1" parent="1">
          <mxGeometry x="2320" y="290" width="10" height="10" as="geometry" />
        </mxCell>
        <mxCell id="n0ySLByZhCP7fiCknB2w-190" value="" style="rounded=0;whiteSpace=wrap;html=1;" vertex="1" parent="1">
          <mxGeometry x="2330" y="290" width="10" height="10" as="geometry" />
        </mxCell>
        <mxCell id="n0ySLByZhCP7fiCknB2w-191" value="" style="rounded=0;whiteSpace=wrap;html=1;" vertex="1" parent="1">
          <mxGeometry x="2340" y="290" width="10" height="10" as="geometry" />
        </mxCell>
        <mxCell id="n0ySLByZhCP7fiCknB2w-192" value="" style="rounded=0;whiteSpace=wrap;html=1;" vertex="1" parent="1">
          <mxGeometry x="2350" y="290" width="10" height="10" as="geometry" />
        </mxCell>
        <mxCell id="n0ySLByZhCP7fiCknB2w-193" value="" style="rounded=0;whiteSpace=wrap;html=1;" vertex="1" parent="1">
          <mxGeometry x="2360" y="290" width="10" height="10" as="geometry" />
        </mxCell>
        <mxCell id="n0ySLByZhCP7fiCknB2w-194" value="" style="rounded=0;whiteSpace=wrap;html=1;" vertex="1" parent="1">
          <mxGeometry x="2370" y="290" width="10" height="10" as="geometry" />
        </mxCell>
        <mxCell id="n0ySLByZhCP7fiCknB2w-195" value="" style="rounded=0;whiteSpace=wrap;html=1;" vertex="1" parent="1">
          <mxGeometry x="2380" y="290" width="10" height="10" as="geometry" />
        </mxCell>
        <mxCell id="n0ySLByZhCP7fiCknB2w-196" value="" style="rounded=0;whiteSpace=wrap;html=1;" vertex="1" parent="1">
          <mxGeometry x="2310" y="300" width="10" height="10" as="geometry" />
        </mxCell>
        <mxCell id="n0ySLByZhCP7fiCknB2w-197" value="" style="rounded=0;whiteSpace=wrap;html=1;" vertex="1" parent="1">
          <mxGeometry x="2320" y="300" width="10" height="10" as="geometry" />
        </mxCell>
        <mxCell id="n0ySLByZhCP7fiCknB2w-198" value="" style="rounded=0;whiteSpace=wrap;html=1;" vertex="1" parent="1">
          <mxGeometry x="2330" y="300" width="10" height="10" as="geometry" />
        </mxCell>
        <mxCell id="n0ySLByZhCP7fiCknB2w-199" value="" style="rounded=0;whiteSpace=wrap;html=1;" vertex="1" parent="1">
          <mxGeometry x="2340" y="300" width="10" height="10" as="geometry" />
        </mxCell>
        <mxCell id="n0ySLByZhCP7fiCknB2w-200" value="" style="rounded=0;whiteSpace=wrap;html=1;" vertex="1" parent="1">
          <mxGeometry x="2350" y="300" width="10" height="10" as="geometry" />
        </mxCell>
        <mxCell id="n0ySLByZhCP7fiCknB2w-201" value="" style="rounded=0;whiteSpace=wrap;html=1;" vertex="1" parent="1">
          <mxGeometry x="2360" y="300" width="10" height="10" as="geometry" />
        </mxCell>
        <mxCell id="n0ySLByZhCP7fiCknB2w-202" value="" style="rounded=0;whiteSpace=wrap;html=1;" vertex="1" parent="1">
          <mxGeometry x="2370" y="300" width="10" height="10" as="geometry" />
        </mxCell>
        <mxCell id="n0ySLByZhCP7fiCknB2w-203" value="" style="rounded=0;whiteSpace=wrap;html=1;" vertex="1" parent="1">
          <mxGeometry x="2380" y="300" width="10" height="10" as="geometry" />
        </mxCell>
        <mxCell id="n0ySLByZhCP7fiCknB2w-204" value="" style="rounded=0;whiteSpace=wrap;html=1;" vertex="1" parent="1">
          <mxGeometry x="2310" y="310" width="10" height="10" as="geometry" />
        </mxCell>
        <mxCell id="n0ySLByZhCP7fiCknB2w-205" value="" style="rounded=0;whiteSpace=wrap;html=1;" vertex="1" parent="1">
          <mxGeometry x="2320" y="310" width="10" height="10" as="geometry" />
        </mxCell>
        <mxCell id="n0ySLByZhCP7fiCknB2w-206" value="" style="rounded=0;whiteSpace=wrap;html=1;" vertex="1" parent="1">
          <mxGeometry x="2330" y="310" width="10" height="10" as="geometry" />
        </mxCell>
        <mxCell id="n0ySLByZhCP7fiCknB2w-207" value="" style="rounded=0;whiteSpace=wrap;html=1;" vertex="1" parent="1">
          <mxGeometry x="2340" y="310" width="10" height="10" as="geometry" />
        </mxCell>
        <mxCell id="n0ySLByZhCP7fiCknB2w-208" value="" style="rounded=0;whiteSpace=wrap;html=1;" vertex="1" parent="1">
          <mxGeometry x="2350" y="310" width="10" height="10" as="geometry" />
        </mxCell>
        <mxCell id="n0ySLByZhCP7fiCknB2w-209" value="" style="rounded=0;whiteSpace=wrap;html=1;" vertex="1" parent="1">
          <mxGeometry x="2360" y="310" width="10" height="10" as="geometry" />
        </mxCell>
        <mxCell id="n0ySLByZhCP7fiCknB2w-210" value="" style="rounded=0;whiteSpace=wrap;html=1;" vertex="1" parent="1">
          <mxGeometry x="2370" y="310" width="10" height="10" as="geometry" />
        </mxCell>
        <mxCell id="n0ySLByZhCP7fiCknB2w-211" value="" style="rounded=0;whiteSpace=wrap;html=1;" vertex="1" parent="1">
          <mxGeometry x="2380" y="310" width="10" height="10" as="geometry" />
        </mxCell>
        <mxCell id="n0ySLByZhCP7fiCknB2w-212" value="" style="shape=curlyBracket;whiteSpace=wrap;html=1;rounded=1;labelPosition=left;verticalLabelPosition=middle;align=right;verticalAlign=middle;" vertex="1" parent="1">
          <mxGeometry x="2290" y="240" width="10" height="80" as="geometry" />
        </mxCell>
        <mxCell id="n0ySLByZhCP7fiCknB2w-213" value="" style="shape=curlyBracket;whiteSpace=wrap;html=1;rounded=1;flipH=1;labelPosition=right;verticalLabelPosition=middle;align=left;verticalAlign=middle;rotation=90;" vertex="1" parent="1">
          <mxGeometry x="2345.38" y="294.38" width="10" height="80.75" as="geometry" />
        </mxCell>
        <mxCell id="n0ySLByZhCP7fiCknB2w-214" value="&lt;font face=&quot;Lucida Console&quot;&gt;240&lt;/font&gt;" style="rounded=0;whiteSpace=wrap;html=1;fillColor=none;strokeColor=none;align=right;" vertex="1" parent="1">
          <mxGeometry x="2200" y="270" width="80" height="20" as="geometry" />
        </mxCell>
        <mxCell id="n0ySLByZhCP7fiCknB2w-215" value="&lt;font face=&quot;Lucida Console&quot;&gt;320&lt;/font&gt;" style="rounded=0;whiteSpace=wrap;html=1;fillColor=none;strokeColor=none;align=center;" vertex="1" parent="1">
          <mxGeometry x="2310" y="340" width="80" height="20" as="geometry" />
        </mxCell>
        <mxCell id="n0ySLByZhCP7fiCknB2w-216" value="" style="endArrow=classic;html=1;rounded=0;fontFamily=Helvetica;fontSize=12;fontColor=default;" edge="1" parent="1">
          <mxGeometry width="50" height="50" relative="1" as="geometry">
            <mxPoint x="2580" y="570" as="sourcePoint" />
            <mxPoint x="2600" y="570" as="targetPoint" />
          </mxGeometry>
        </mxCell>
        <mxCell id="n0ySLByZhCP7fiCknB2w-217" value="e" style="rounded=0;whiteSpace=wrap;html=1;pointerEvents=0;align=center;verticalAlign=middle;fontFamily=Helvetica;fontSize=12;glass=0;fillColor=#d5e8d4;strokeColor=#82b366;" vertex="1" parent="1">
          <mxGeometry x="2680" y="560" width="20" height="20" as="geometry" />
        </mxCell>
        <mxCell id="n0ySLByZhCP7fiCknB2w-218" value="&lt;b&gt;t&lt;/b&gt;" style="rounded=0;whiteSpace=wrap;html=1;pointerEvents=0;align=center;verticalAlign=middle;fontFamily=Helvetica;fontSize=12;glass=0;" vertex="1" parent="1">
          <mxGeometry x="2660" y="560" width="20" height="20" as="geometry" />
        </mxCell>
        <mxCell id="n0ySLByZhCP7fiCknB2w-294" value="" style="endArrow=classic;html=1;rounded=0;" edge="1" parent="1">
          <mxGeometry width="50" height="50" relative="1" as="geometry">
            <mxPoint x="2690" y="600" as="sourcePoint" />
            <mxPoint x="2690" y="580" as="targetPoint" />
          </mxGeometry>
        </mxCell>
        <mxCell id="n0ySLByZhCP7fiCknB2w-313" value="&lt;font face=&quot;Lucida Console&quot;&gt;&lt;b&gt;(a)&lt;/b&gt;&lt;/font&gt;" style="rounded=0;whiteSpace=wrap;html=1;fontFamily=Lucida Console;fillColor=none;strokeColor=none;align=left;fontSize=10;" vertex="1" parent="1">
          <mxGeometry x="2580" y="520" width="80" height="20" as="geometry" />
        </mxCell>
        <mxCell id="n0ySLByZhCP7fiCknB2w-324" value="" style="endArrow=classic;html=1;rounded=0;fontFamily=Helvetica;fontSize=12;fontColor=default;" edge="1" parent="1">
          <mxGeometry width="50" height="50" relative="1" as="geometry">
            <mxPoint x="2700" y="570" as="sourcePoint" />
            <mxPoint x="2720" y="570" as="targetPoint" />
          </mxGeometry>
        </mxCell>
        <mxCell id="n0ySLByZhCP7fiCknB2w-385" value="e" style="rounded=0;whiteSpace=wrap;html=1;pointerEvents=0;align=center;verticalAlign=middle;fontFamily=Helvetica;fontSize=12;glass=0;fillColor=#dae8fc;strokeColor=#6c8ebf;" vertex="1" parent="1">
          <mxGeometry x="2640" y="560" width="20" height="20" as="geometry" />
        </mxCell>
        <mxCell id="n0ySLByZhCP7fiCknB2w-386" value="e" style="rounded=0;whiteSpace=wrap;html=1;pointerEvents=0;align=center;verticalAlign=middle;fontFamily=Helvetica;fontSize=12;glass=0;fillColor=#dae8fc;strokeColor=#6c8ebf;" vertex="1" parent="1">
          <mxGeometry x="2620" y="560" width="20" height="20" as="geometry" />
        </mxCell>
        <mxCell id="n0ySLByZhCP7fiCknB2w-387" value="e" style="rounded=0;whiteSpace=wrap;html=1;pointerEvents=0;align=center;verticalAlign=middle;fontFamily=Helvetica;fontSize=12;glass=0;fillColor=#dae8fc;strokeColor=#6c8ebf;" vertex="1" parent="1">
          <mxGeometry x="2600" y="560" width="20" height="20" as="geometry" />
        </mxCell>
        <mxCell id="n0ySLByZhCP7fiCknB2w-388" value="" style="rounded=0;whiteSpace=wrap;html=1;pointerEvents=0;align=center;verticalAlign=top;fontFamily=Helvetica;fontSize=12;fontColor=default;fillColor=default;gradientColor=none;glass=0;" vertex="1" parent="1">
          <mxGeometry x="2940" y="540" width="80" height="50" as="geometry" />
        </mxCell>
        <mxCell id="n0ySLByZhCP7fiCknB2w-389" value="&lt;font style=&quot;font-size: 10px;&quot; face=&quot;Lucida Console&quot;&gt;FC_2&lt;/font&gt;" style="rounded=1;whiteSpace=wrap;html=1;" vertex="1" parent="1">
          <mxGeometry x="2940" y="540" width="80" height="20" as="geometry" />
        </mxCell>
        <mxCell id="n0ySLByZhCP7fiCknB2w-390" value="&lt;font face=&quot;Lucida Console&quot;&gt;TSTEP: 1&lt;/font&gt;" style="rounded=0;whiteSpace=wrap;html=1;pointerEvents=0;align=center;verticalAlign=middle;fontFamily=Helvetica;fontSize=12;fontColor=default;fillColor=none;gradientColor=none;glass=0;strokeColor=none;" vertex="1" parent="1">
          <mxGeometry x="2950" y="560" width="60" height="30" as="geometry" />
        </mxCell>
        <mxCell id="n0ySLByZhCP7fiCknB2w-391" value="&lt;font face=&quot;Lucida Console&quot;&gt;Accumulating&lt;/font&gt;" style="rounded=0;whiteSpace=wrap;html=1;fontFamily=Lucida Console;fillColor=none;strokeColor=none;align=center;fontSize=10;" vertex="1" parent="1">
          <mxGeometry x="2940" y="520" width="80" height="20" as="geometry" />
        </mxCell>
        <mxCell id="n0ySLByZhCP7fiCknB2w-392" value="" style="endArrow=classic;html=1;rounded=0;fontFamily=Helvetica;fontSize=12;fontColor=default;" edge="1" parent="1">
          <mxGeometry width="50" height="50" relative="1" as="geometry">
            <mxPoint x="2800" y="570" as="sourcePoint" />
            <mxPoint x="2820" y="570" as="targetPoint" />
          </mxGeometry>
        </mxCell>
        <mxCell id="n0ySLByZhCP7fiCknB2w-393" value="e" style="rounded=0;whiteSpace=wrap;html=1;pointerEvents=0;align=center;verticalAlign=middle;fontFamily=Helvetica;fontSize=12;glass=0;fillColor=#dae8fc;strokeColor=#6c8ebf;" vertex="1" parent="1">
          <mxGeometry x="2900" y="560" width="20" height="20" as="geometry" />
        </mxCell>
        <mxCell id="n0ySLByZhCP7fiCknB2w-394" value="e" style="rounded=0;whiteSpace=wrap;html=1;pointerEvents=0;align=center;verticalAlign=middle;fontFamily=Helvetica;fontSize=12;glass=0;fillColor=#dae8fc;strokeColor=#6c8ebf;" vertex="1" parent="1">
          <mxGeometry x="2880" y="560" width="20" height="20" as="geometry" />
        </mxCell>
        <mxCell id="n0ySLByZhCP7fiCknB2w-395" value="" style="endArrow=classic;html=1;rounded=0;" edge="1" parent="1">
          <mxGeometry width="50" height="50" relative="1" as="geometry">
            <mxPoint x="2910" y="600" as="sourcePoint" />
            <mxPoint x="2910" y="580" as="targetPoint" />
          </mxGeometry>
        </mxCell>
        <mxCell id="n0ySLByZhCP7fiCknB2w-396" value="" style="endArrow=classic;html=1;rounded=0;fontFamily=Helvetica;fontSize=12;fontColor=default;" edge="1" parent="1">
          <mxGeometry width="50" height="50" relative="1" as="geometry">
            <mxPoint x="2920" y="570" as="sourcePoint" />
            <mxPoint x="2940" y="570" as="targetPoint" />
          </mxGeometry>
        </mxCell>
        <mxCell id="n0ySLByZhCP7fiCknB2w-397" value="e" style="rounded=0;whiteSpace=wrap;html=1;pointerEvents=0;align=center;verticalAlign=middle;fontFamily=Helvetica;fontSize=12;glass=0;fillColor=#dae8fc;strokeColor=#6c8ebf;" vertex="1" parent="1">
          <mxGeometry x="2860" y="560" width="20" height="20" as="geometry" />
        </mxCell>
        <mxCell id="n0ySLByZhCP7fiCknB2w-398" value="e" style="rounded=0;whiteSpace=wrap;html=1;pointerEvents=0;align=center;verticalAlign=middle;fontFamily=Helvetica;fontSize=12;glass=0;fillColor=#dae8fc;strokeColor=#6c8ebf;" vertex="1" parent="1">
          <mxGeometry x="2840" y="560" width="20" height="20" as="geometry" />
        </mxCell>
        <mxCell id="n0ySLByZhCP7fiCknB2w-399" value="e" style="rounded=0;whiteSpace=wrap;html=1;pointerEvents=0;align=center;verticalAlign=middle;fontFamily=Helvetica;fontSize=12;glass=0;fillColor=#dae8fc;strokeColor=#6c8ebf;" vertex="1" parent="1">
          <mxGeometry x="2820" y="560" width="20" height="20" as="geometry" />
        </mxCell>
        <mxCell id="n0ySLByZhCP7fiCknB2w-400" value="" style="rounded=0;whiteSpace=wrap;html=1;pointerEvents=0;align=center;verticalAlign=top;fontFamily=Helvetica;fontSize=12;fontColor=default;fillColor=default;gradientColor=none;glass=0;" vertex="1" parent="1">
          <mxGeometry x="3160" y="540" width="80" height="50" as="geometry" />
        </mxCell>
        <mxCell id="n0ySLByZhCP7fiCknB2w-401" value="&lt;font style=&quot;font-size: 10px;&quot; face=&quot;Lucida Console&quot;&gt;FC_3&lt;/font&gt;" style="rounded=1;whiteSpace=wrap;html=1;" vertex="1" parent="1">
          <mxGeometry x="3160" y="540" width="80" height="20" as="geometry" />
        </mxCell>
        <mxCell id="n0ySLByZhCP7fiCknB2w-402" value="&lt;font face=&quot;Lucida Console&quot;&gt;TSTEP: 0&lt;/font&gt;" style="rounded=0;whiteSpace=wrap;html=1;pointerEvents=0;align=center;verticalAlign=middle;fontFamily=Helvetica;fontSize=12;fontColor=default;fillColor=none;gradientColor=none;glass=0;strokeColor=none;" vertex="1" parent="1">
          <mxGeometry x="3170" y="560" width="60" height="30" as="geometry" />
        </mxCell>
        <mxCell id="n0ySLByZhCP7fiCknB2w-403" value="&lt;font face=&quot;Lucida Console&quot;&gt;Accumulating&lt;/font&gt;" style="rounded=0;whiteSpace=wrap;html=1;fontFamily=Lucida Console;fillColor=none;strokeColor=none;align=center;fontSize=10;" vertex="1" parent="1">
          <mxGeometry x="3160" y="520" width="80" height="20" as="geometry" />
        </mxCell>
        <mxCell id="n0ySLByZhCP7fiCknB2w-404" value="" style="endArrow=classic;html=1;rounded=0;fontFamily=Helvetica;fontSize=12;fontColor=default;" edge="1" parent="1">
          <mxGeometry width="50" height="50" relative="1" as="geometry">
            <mxPoint x="3020" y="570" as="sourcePoint" />
            <mxPoint x="3040" y="570" as="targetPoint" />
          </mxGeometry>
        </mxCell>
        <mxCell id="n0ySLByZhCP7fiCknB2w-405" value="e" style="rounded=0;whiteSpace=wrap;html=1;pointerEvents=0;align=center;verticalAlign=middle;fontFamily=Helvetica;fontSize=12;glass=0;fillColor=#dae8fc;strokeColor=#6c8ebf;" vertex="1" parent="1">
          <mxGeometry x="3120" y="560" width="20" height="20" as="geometry" />
        </mxCell>
        <mxCell id="n0ySLByZhCP7fiCknB2w-406" value="e" style="rounded=0;whiteSpace=wrap;html=1;pointerEvents=0;align=center;verticalAlign=middle;fontFamily=Helvetica;fontSize=12;glass=0;fillColor=#dae8fc;strokeColor=#6c8ebf;" vertex="1" parent="1">
          <mxGeometry x="3100" y="560" width="20" height="20" as="geometry" />
        </mxCell>
        <mxCell id="n0ySLByZhCP7fiCknB2w-407" value="" style="endArrow=classic;html=1;rounded=0;" edge="1" parent="1">
          <mxGeometry width="50" height="50" relative="1" as="geometry">
            <mxPoint x="3130" y="600" as="sourcePoint" />
            <mxPoint x="3130" y="580" as="targetPoint" />
          </mxGeometry>
        </mxCell>
        <mxCell id="n0ySLByZhCP7fiCknB2w-408" value="" style="endArrow=classic;html=1;rounded=0;fontFamily=Helvetica;fontSize=12;fontColor=default;" edge="1" parent="1">
          <mxGeometry width="50" height="50" relative="1" as="geometry">
            <mxPoint x="3140" y="570" as="sourcePoint" />
            <mxPoint x="3160" y="570" as="targetPoint" />
          </mxGeometry>
        </mxCell>
        <mxCell id="n0ySLByZhCP7fiCknB2w-409" value="&lt;b&gt;t&lt;/b&gt;" style="rounded=0;whiteSpace=wrap;html=1;pointerEvents=0;align=center;verticalAlign=middle;fontFamily=Helvetica;fontSize=12;glass=0;" vertex="1" parent="1">
          <mxGeometry x="3080" y="560" width="20" height="20" as="geometry" />
        </mxCell>
        <mxCell id="n0ySLByZhCP7fiCknB2w-410" value="e" style="rounded=0;whiteSpace=wrap;html=1;pointerEvents=0;align=center;verticalAlign=middle;fontFamily=Helvetica;fontSize=12;glass=0;fillColor=#d5e8d4;strokeColor=#82b366;" vertex="1" parent="1">
          <mxGeometry x="3060" y="560" width="20" height="20" as="geometry" />
        </mxCell>
        <mxCell id="n0ySLByZhCP7fiCknB2w-411" value="e" style="rounded=0;whiteSpace=wrap;html=1;pointerEvents=0;align=center;verticalAlign=middle;fontFamily=Helvetica;fontSize=12;glass=0;fillColor=#d5e8d4;strokeColor=#82b366;" vertex="1" parent="1">
          <mxGeometry x="3040" y="560" width="20" height="20" as="geometry" />
        </mxCell>
        <mxCell id="n0ySLByZhCP7fiCknB2w-414" value="" style="endArrow=classic;html=1;rounded=0;fontFamily=Helvetica;fontSize=12;fontColor=default;" edge="1" parent="1">
          <mxGeometry width="50" height="50" relative="1" as="geometry">
            <mxPoint x="3240" y="570" as="sourcePoint" />
            <mxPoint x="3260" y="570" as="targetPoint" />
          </mxGeometry>
        </mxCell>
        <mxCell id="n0ySLByZhCP7fiCknB2w-415" value="" style="rounded=0;whiteSpace=wrap;html=1;pointerEvents=0;align=center;verticalAlign=top;fontFamily=Helvetica;fontSize=12;fontColor=default;fillColor=default;gradientColor=none;glass=0;" vertex="1" parent="1">
          <mxGeometry x="2720" y="650" width="80" height="50" as="geometry" />
        </mxCell>
        <mxCell id="n0ySLByZhCP7fiCknB2w-416" value="&lt;font style=&quot;font-size: 10px;&quot; face=&quot;Lucida Console&quot;&gt;FC_1&lt;/font&gt;" style="rounded=1;whiteSpace=wrap;html=1;" vertex="1" parent="1">
          <mxGeometry x="2720" y="650" width="80" height="20" as="geometry" />
        </mxCell>
        <mxCell id="n0ySLByZhCP7fiCknB2w-417" value="&lt;font face=&quot;Lucida Console&quot;&gt;TSTEP: 2&lt;/font&gt;" style="rounded=0;whiteSpace=wrap;html=1;pointerEvents=0;align=center;verticalAlign=middle;fontFamily=Helvetica;fontSize=12;fontColor=default;fillColor=none;gradientColor=none;glass=0;strokeColor=none;" vertex="1" parent="1">
          <mxGeometry x="2730" y="670" width="60" height="30" as="geometry" />
        </mxCell>
        <mxCell id="n0ySLByZhCP7fiCknB2w-418" value="&lt;font face=&quot;Lucida Console&quot;&gt;Evaluating&lt;/font&gt;" style="rounded=0;whiteSpace=wrap;html=1;fontFamily=Lucida Console;fillColor=none;strokeColor=none;align=center;fontSize=10;" vertex="1" parent="1">
          <mxGeometry x="2720" y="630" width="80" height="20" as="geometry" />
        </mxCell>
        <mxCell id="n0ySLByZhCP7fiCknB2w-419" value="" style="endArrow=classic;html=1;rounded=0;fontFamily=Helvetica;fontSize=12;fontColor=default;" edge="1" parent="1">
          <mxGeometry width="50" height="50" relative="1" as="geometry">
            <mxPoint x="2580" y="680" as="sourcePoint" />
            <mxPoint x="2600" y="680" as="targetPoint" />
          </mxGeometry>
        </mxCell>
        <mxCell id="n0ySLByZhCP7fiCknB2w-420" value="&lt;b&gt;t&lt;/b&gt;" style="rounded=0;whiteSpace=wrap;html=1;pointerEvents=0;align=center;verticalAlign=middle;fontFamily=Helvetica;fontSize=12;glass=0;" vertex="1" parent="1">
          <mxGeometry x="2680" y="670" width="20" height="20" as="geometry" />
        </mxCell>
        <mxCell id="n0ySLByZhCP7fiCknB2w-421" value="e" style="rounded=0;whiteSpace=wrap;html=1;pointerEvents=0;align=center;verticalAlign=middle;fontFamily=Helvetica;fontSize=12;glass=0;fillColor=#dae8fc;strokeColor=#6c8ebf;" vertex="1" parent="1">
          <mxGeometry x="2660" y="670" width="20" height="20" as="geometry" />
        </mxCell>
        <mxCell id="n0ySLByZhCP7fiCknB2w-422" value="" style="endArrow=classic;html=1;rounded=0;" edge="1" parent="1">
          <mxGeometry width="50" height="50" relative="1" as="geometry">
            <mxPoint x="2690" y="710" as="sourcePoint" />
            <mxPoint x="2690" y="690" as="targetPoint" />
          </mxGeometry>
        </mxCell>
        <mxCell id="n0ySLByZhCP7fiCknB2w-423" value="" style="endArrow=classic;html=1;rounded=0;fontFamily=Helvetica;fontSize=12;fontColor=default;" edge="1" parent="1">
          <mxGeometry width="50" height="50" relative="1" as="geometry">
            <mxPoint x="2700" y="680" as="sourcePoint" />
            <mxPoint x="2720" y="680" as="targetPoint" />
          </mxGeometry>
        </mxCell>
        <mxCell id="n0ySLByZhCP7fiCknB2w-424" value="e" style="rounded=0;whiteSpace=wrap;html=1;pointerEvents=0;align=center;verticalAlign=middle;fontFamily=Helvetica;fontSize=12;glass=0;fillColor=#dae8fc;strokeColor=#6c8ebf;" vertex="1" parent="1">
          <mxGeometry x="2640" y="670" width="20" height="20" as="geometry" />
        </mxCell>
        <mxCell id="n0ySLByZhCP7fiCknB2w-425" value="e" style="rounded=0;whiteSpace=wrap;html=1;pointerEvents=0;align=center;verticalAlign=middle;fontFamily=Helvetica;fontSize=12;glass=0;fillColor=#dae8fc;strokeColor=#6c8ebf;" vertex="1" parent="1">
          <mxGeometry x="2620" y="670" width="20" height="20" as="geometry" />
        </mxCell>
        <mxCell id="n0ySLByZhCP7fiCknB2w-426" value="e" style="rounded=0;whiteSpace=wrap;html=1;pointerEvents=0;align=center;verticalAlign=middle;fontFamily=Helvetica;fontSize=12;glass=0;fillColor=#dae8fc;strokeColor=#6c8ebf;" vertex="1" parent="1">
          <mxGeometry x="2600" y="670" width="20" height="20" as="geometry" />
        </mxCell>
        <mxCell id="n0ySLByZhCP7fiCknB2w-427" value="" style="rounded=0;whiteSpace=wrap;html=1;pointerEvents=0;align=center;verticalAlign=top;fontFamily=Helvetica;fontSize=12;fontColor=default;fillColor=default;gradientColor=none;glass=0;" vertex="1" parent="1">
          <mxGeometry x="2940" y="650" width="80" height="50" as="geometry" />
        </mxCell>
        <mxCell id="n0ySLByZhCP7fiCknB2w-428" value="&lt;font style=&quot;font-size: 10px;&quot; face=&quot;Lucida Console&quot;&gt;FC_2&lt;/font&gt;" style="rounded=1;whiteSpace=wrap;html=1;" vertex="1" parent="1">
          <mxGeometry x="2940" y="650" width="80" height="20" as="geometry" />
        </mxCell>
        <mxCell id="n0ySLByZhCP7fiCknB2w-429" value="&lt;font face=&quot;Lucida Console&quot;&gt;TSTEP: 1&lt;/font&gt;" style="rounded=0;whiteSpace=wrap;html=1;pointerEvents=0;align=center;verticalAlign=middle;fontFamily=Helvetica;fontSize=12;fontColor=default;fillColor=none;gradientColor=none;glass=0;strokeColor=none;" vertex="1" parent="1">
          <mxGeometry x="2950" y="670" width="60" height="30" as="geometry" />
        </mxCell>
        <mxCell id="n0ySLByZhCP7fiCknB2w-430" value="&lt;font face=&quot;Lucida Console&quot;&gt;Accumulating&lt;/font&gt;" style="rounded=0;whiteSpace=wrap;html=1;fontFamily=Lucida Console;fillColor=none;strokeColor=none;align=center;fontSize=10;" vertex="1" parent="1">
          <mxGeometry x="2940" y="630" width="80" height="20" as="geometry" />
        </mxCell>
        <mxCell id="n0ySLByZhCP7fiCknB2w-431" value="" style="endArrow=classic;html=1;rounded=0;fontFamily=Helvetica;fontSize=12;fontColor=default;" edge="1" parent="1">
          <mxGeometry width="50" height="50" relative="1" as="geometry">
            <mxPoint x="2800" y="680" as="sourcePoint" />
            <mxPoint x="2820" y="680" as="targetPoint" />
          </mxGeometry>
        </mxCell>
        <mxCell id="n0ySLByZhCP7fiCknB2w-432" value="e" style="rounded=0;whiteSpace=wrap;html=1;pointerEvents=0;align=center;verticalAlign=middle;fontFamily=Helvetica;fontSize=12;glass=0;fillColor=#dae8fc;strokeColor=#6c8ebf;" vertex="1" parent="1">
          <mxGeometry x="2900" y="670" width="20" height="20" as="geometry" />
        </mxCell>
        <mxCell id="n0ySLByZhCP7fiCknB2w-433" value="e" style="rounded=0;whiteSpace=wrap;html=1;pointerEvents=0;align=center;verticalAlign=middle;fontFamily=Helvetica;fontSize=12;glass=0;fillColor=#dae8fc;strokeColor=#6c8ebf;" vertex="1" parent="1">
          <mxGeometry x="2880" y="670" width="20" height="20" as="geometry" />
        </mxCell>
        <mxCell id="n0ySLByZhCP7fiCknB2w-434" value="" style="endArrow=classic;html=1;rounded=0;" edge="1" parent="1">
          <mxGeometry width="50" height="50" relative="1" as="geometry">
            <mxPoint x="2910" y="710" as="sourcePoint" />
            <mxPoint x="2910" y="690" as="targetPoint" />
          </mxGeometry>
        </mxCell>
        <mxCell id="n0ySLByZhCP7fiCknB2w-435" value="" style="endArrow=classic;html=1;rounded=0;fontFamily=Helvetica;fontSize=12;fontColor=default;" edge="1" parent="1">
          <mxGeometry width="50" height="50" relative="1" as="geometry">
            <mxPoint x="2920" y="680" as="sourcePoint" />
            <mxPoint x="2940" y="680" as="targetPoint" />
          </mxGeometry>
        </mxCell>
        <mxCell id="n0ySLByZhCP7fiCknB2w-436" value="&lt;b&gt;t&lt;/b&gt;" style="rounded=0;whiteSpace=wrap;html=1;pointerEvents=0;align=center;verticalAlign=middle;fontFamily=Helvetica;fontSize=12;glass=0;" vertex="1" parent="1">
          <mxGeometry x="2860" y="670" width="20" height="20" as="geometry" />
        </mxCell>
        <mxCell id="n0ySLByZhCP7fiCknB2w-437" value="e" style="rounded=0;whiteSpace=wrap;html=1;pointerEvents=0;align=center;verticalAlign=middle;fontFamily=Helvetica;fontSize=12;glass=0;fillColor=#d5e8d4;strokeColor=#82b366;" vertex="1" parent="1">
          <mxGeometry x="2840" y="670" width="20" height="20" as="geometry" />
        </mxCell>
        <mxCell id="n0ySLByZhCP7fiCknB2w-438" value="e" style="rounded=0;whiteSpace=wrap;html=1;pointerEvents=0;align=center;verticalAlign=middle;fontFamily=Helvetica;fontSize=12;glass=0;fillColor=#d5e8d4;strokeColor=#82b366;" vertex="1" parent="1">
          <mxGeometry x="2820" y="670" width="20" height="20" as="geometry" />
        </mxCell>
        <mxCell id="n0ySLByZhCP7fiCknB2w-439" value="" style="rounded=0;whiteSpace=wrap;html=1;pointerEvents=0;align=center;verticalAlign=top;fontFamily=Helvetica;fontSize=12;fontColor=default;fillColor=default;gradientColor=none;glass=0;" vertex="1" parent="1">
          <mxGeometry x="3160" y="650" width="80" height="50" as="geometry" />
        </mxCell>
        <mxCell id="n0ySLByZhCP7fiCknB2w-440" value="&lt;font style=&quot;font-size: 10px;&quot; face=&quot;Lucida Console&quot;&gt;FC_3&lt;/font&gt;" style="rounded=1;whiteSpace=wrap;html=1;" vertex="1" parent="1">
          <mxGeometry x="3160" y="650" width="80" height="20" as="geometry" />
        </mxCell>
        <mxCell id="n0ySLByZhCP7fiCknB2w-441" value="&lt;font face=&quot;Lucida Console&quot;&gt;TSTEP: 1&lt;/font&gt;" style="rounded=0;whiteSpace=wrap;html=1;pointerEvents=0;align=center;verticalAlign=middle;fontFamily=Helvetica;fontSize=12;fontColor=default;fillColor=none;gradientColor=none;glass=0;strokeColor=none;" vertex="1" parent="1">
          <mxGeometry x="3170" y="670" width="60" height="30" as="geometry" />
        </mxCell>
        <mxCell id="n0ySLByZhCP7fiCknB2w-442" value="&lt;font face=&quot;Lucida Console&quot;&gt;Evaluating&lt;/font&gt;" style="rounded=0;whiteSpace=wrap;html=1;fontFamily=Lucida Console;fillColor=none;strokeColor=none;align=center;fontSize=10;" vertex="1" parent="1">
          <mxGeometry x="3160" y="630" width="80" height="20" as="geometry" />
        </mxCell>
        <mxCell id="n0ySLByZhCP7fiCknB2w-443" value="" style="endArrow=classic;html=1;rounded=0;fontFamily=Helvetica;fontSize=12;fontColor=default;" edge="1" parent="1">
          <mxGeometry width="50" height="50" relative="1" as="geometry">
            <mxPoint x="3020" y="680" as="sourcePoint" />
            <mxPoint x="3040" y="680" as="targetPoint" />
          </mxGeometry>
        </mxCell>
        <mxCell id="n0ySLByZhCP7fiCknB2w-444" value="&lt;b&gt;t&lt;/b&gt;" style="rounded=0;whiteSpace=wrap;html=1;pointerEvents=0;align=center;verticalAlign=middle;fontFamily=Helvetica;fontSize=12;glass=0;" vertex="1" parent="1">
          <mxGeometry x="3120" y="670" width="20" height="20" as="geometry" />
        </mxCell>
        <mxCell id="n0ySLByZhCP7fiCknB2w-445" value="e" style="rounded=0;whiteSpace=wrap;html=1;pointerEvents=0;align=center;verticalAlign=middle;fontFamily=Helvetica;fontSize=12;glass=0;fillColor=#d5e8d4;strokeColor=#82b366;" vertex="1" parent="1">
          <mxGeometry x="3100" y="670" width="20" height="20" as="geometry" />
        </mxCell>
        <mxCell id="n0ySLByZhCP7fiCknB2w-446" value="" style="endArrow=classic;html=1;rounded=0;" edge="1" parent="1">
          <mxGeometry width="50" height="50" relative="1" as="geometry">
            <mxPoint x="3130" y="710" as="sourcePoint" />
            <mxPoint x="3130" y="690" as="targetPoint" />
          </mxGeometry>
        </mxCell>
        <mxCell id="n0ySLByZhCP7fiCknB2w-447" value="" style="endArrow=classic;html=1;rounded=0;fontFamily=Helvetica;fontSize=12;fontColor=default;" edge="1" parent="1">
          <mxGeometry width="50" height="50" relative="1" as="geometry">
            <mxPoint x="3140" y="680" as="sourcePoint" />
            <mxPoint x="3160" y="680" as="targetPoint" />
          </mxGeometry>
        </mxCell>
        <mxCell id="n0ySLByZhCP7fiCknB2w-448" value="e" style="rounded=0;whiteSpace=wrap;html=1;pointerEvents=0;align=center;verticalAlign=middle;fontFamily=Helvetica;fontSize=12;glass=0;fillColor=#d5e8d4;strokeColor=#82b366;" vertex="1" parent="1">
          <mxGeometry x="3080" y="670" width="20" height="20" as="geometry" />
        </mxCell>
        <mxCell id="n0ySLByZhCP7fiCknB2w-449" value="" style="rounded=0;whiteSpace=wrap;html=1;pointerEvents=0;align=center;verticalAlign=middle;fontFamily=Helvetica;fontSize=12;glass=0;" vertex="1" parent="1">
          <mxGeometry x="3060" y="670" width="20" height="20" as="geometry" />
        </mxCell>
        <mxCell id="n0ySLByZhCP7fiCknB2w-450" value="" style="rounded=0;whiteSpace=wrap;html=1;pointerEvents=0;align=center;verticalAlign=middle;fontFamily=Helvetica;fontSize=12;glass=0;" vertex="1" parent="1">
          <mxGeometry x="3040" y="670" width="20" height="20" as="geometry" />
        </mxCell>
        <mxCell id="n0ySLByZhCP7fiCknB2w-451" value="" style="endArrow=classic;html=1;rounded=0;fontFamily=Helvetica;fontSize=12;fontColor=default;" edge="1" parent="1">
          <mxGeometry width="50" height="50" relative="1" as="geometry">
            <mxPoint x="3240" y="680" as="sourcePoint" />
            <mxPoint x="3260" y="680" as="targetPoint" />
          </mxGeometry>
        </mxCell>
        <mxCell id="n0ySLByZhCP7fiCknB2w-452" value="" style="rounded=0;whiteSpace=wrap;html=1;pointerEvents=0;align=center;verticalAlign=middle;fontFamily=Helvetica;fontSize=12;glass=0;" vertex="1" parent="1">
          <mxGeometry x="3340" y="560" width="20" height="20" as="geometry" />
        </mxCell>
        <mxCell id="n0ySLByZhCP7fiCknB2w-453" value="" style="rounded=0;whiteSpace=wrap;html=1;pointerEvents=0;align=center;verticalAlign=middle;fontFamily=Helvetica;fontSize=12;glass=0;" vertex="1" parent="1">
          <mxGeometry x="3320" y="560" width="20" height="20" as="geometry" />
        </mxCell>
        <mxCell id="n0ySLByZhCP7fiCknB2w-454" value="" style="rounded=0;whiteSpace=wrap;html=1;pointerEvents=0;align=center;verticalAlign=middle;fontFamily=Helvetica;fontSize=12;glass=0;" vertex="1" parent="1">
          <mxGeometry x="3300" y="560" width="20" height="20" as="geometry" />
        </mxCell>
        <mxCell id="n0ySLByZhCP7fiCknB2w-455" value="" style="rounded=0;whiteSpace=wrap;html=1;pointerEvents=0;align=center;verticalAlign=middle;fontFamily=Helvetica;fontSize=12;glass=0;" vertex="1" parent="1">
          <mxGeometry x="3280" y="560" width="20" height="20" as="geometry" />
        </mxCell>
        <mxCell id="n0ySLByZhCP7fiCknB2w-456" value="" style="rounded=0;whiteSpace=wrap;html=1;pointerEvents=0;align=center;verticalAlign=middle;fontFamily=Helvetica;fontSize=12;glass=0;" vertex="1" parent="1">
          <mxGeometry x="3260" y="560" width="20" height="20" as="geometry" />
        </mxCell>
        <mxCell id="n0ySLByZhCP7fiCknB2w-457" value="e" style="rounded=0;whiteSpace=wrap;html=1;pointerEvents=0;align=center;verticalAlign=middle;fontFamily=Helvetica;fontSize=12;glass=0;fillColor=#dae8fc;strokeColor=#6c8ebf;" vertex="1" parent="1">
          <mxGeometry x="3340" y="670" width="20" height="20" as="geometry" />
        </mxCell>
        <mxCell id="n0ySLByZhCP7fiCknB2w-458" value="" style="rounded=0;whiteSpace=wrap;html=1;pointerEvents=0;align=center;verticalAlign=middle;fontFamily=Helvetica;fontSize=12;glass=0;" vertex="1" parent="1">
          <mxGeometry x="3320" y="670" width="20" height="20" as="geometry" />
        </mxCell>
        <mxCell id="n0ySLByZhCP7fiCknB2w-459" value="" style="rounded=0;whiteSpace=wrap;html=1;pointerEvents=0;align=center;verticalAlign=middle;fontFamily=Helvetica;fontSize=12;glass=0;" vertex="1" parent="1">
          <mxGeometry x="3300" y="670" width="20" height="20" as="geometry" />
        </mxCell>
        <mxCell id="n0ySLByZhCP7fiCknB2w-460" value="" style="rounded=0;whiteSpace=wrap;html=1;pointerEvents=0;align=center;verticalAlign=middle;fontFamily=Helvetica;fontSize=12;glass=0;" vertex="1" parent="1">
          <mxGeometry x="3280" y="670" width="20" height="20" as="geometry" />
        </mxCell>
        <mxCell id="n0ySLByZhCP7fiCknB2w-461" value="" style="rounded=0;whiteSpace=wrap;html=1;pointerEvents=0;align=center;verticalAlign=middle;fontFamily=Helvetica;fontSize=12;glass=0;" vertex="1" parent="1">
          <mxGeometry x="3260" y="670" width="20" height="20" as="geometry" />
        </mxCell>
        <mxCell id="n0ySLByZhCP7fiCknB2w-462" value="" style="rounded=0;whiteSpace=wrap;html=1;pointerEvents=0;align=center;verticalAlign=top;fontFamily=Helvetica;fontSize=12;fontColor=default;fillColor=default;gradientColor=none;glass=0;" vertex="1" parent="1">
          <mxGeometry x="2720" y="760" width="80" height="50" as="geometry" />
        </mxCell>
        <mxCell id="n0ySLByZhCP7fiCknB2w-463" value="&lt;font style=&quot;font-size: 10px;&quot; face=&quot;Lucida Console&quot;&gt;FC_1&lt;/font&gt;" style="rounded=1;whiteSpace=wrap;html=1;" vertex="1" parent="1">
          <mxGeometry x="2720" y="760" width="80" height="20" as="geometry" />
        </mxCell>
        <mxCell id="n0ySLByZhCP7fiCknB2w-464" value="&lt;font face=&quot;Lucida Console&quot;&gt;TSTEP: 2&lt;/font&gt;" style="rounded=0;whiteSpace=wrap;html=1;pointerEvents=0;align=center;verticalAlign=middle;fontFamily=Helvetica;fontSize=12;fontColor=default;fillColor=none;gradientColor=none;glass=0;strokeColor=none;" vertex="1" parent="1">
          <mxGeometry x="2730" y="780" width="60" height="30" as="geometry" />
        </mxCell>
        <mxCell id="n0ySLByZhCP7fiCknB2w-465" value="&lt;font face=&quot;Lucida Console&quot;&gt;Accumulating&lt;/font&gt;" style="rounded=0;whiteSpace=wrap;html=1;fontFamily=Lucida Console;fillColor=none;strokeColor=none;align=center;fontSize=10;" vertex="1" parent="1">
          <mxGeometry x="2720" y="740" width="80" height="20" as="geometry" />
        </mxCell>
        <mxCell id="n0ySLByZhCP7fiCknB2w-466" value="" style="endArrow=classic;html=1;rounded=0;fontFamily=Helvetica;fontSize=12;fontColor=default;" edge="1" parent="1">
          <mxGeometry width="50" height="50" relative="1" as="geometry">
            <mxPoint x="2580" y="790" as="sourcePoint" />
            <mxPoint x="2600" y="790" as="targetPoint" />
          </mxGeometry>
        </mxCell>
        <mxCell id="n0ySLByZhCP7fiCknB2w-467" value="e" style="rounded=0;whiteSpace=wrap;html=1;pointerEvents=0;align=center;verticalAlign=middle;fontFamily=Helvetica;fontSize=12;glass=0;fillColor=#dae8fc;strokeColor=#6c8ebf;" vertex="1" parent="1">
          <mxGeometry x="2680" y="780" width="20" height="20" as="geometry" />
        </mxCell>
        <mxCell id="n0ySLByZhCP7fiCknB2w-468" value="e" style="rounded=0;whiteSpace=wrap;html=1;pointerEvents=0;align=center;verticalAlign=middle;fontFamily=Helvetica;fontSize=12;glass=0;fillColor=#dae8fc;strokeColor=#6c8ebf;" vertex="1" parent="1">
          <mxGeometry x="2660" y="780" width="20" height="20" as="geometry" />
        </mxCell>
        <mxCell id="n0ySLByZhCP7fiCknB2w-469" value="" style="endArrow=classic;html=1;rounded=0;" edge="1" parent="1">
          <mxGeometry width="50" height="50" relative="1" as="geometry">
            <mxPoint x="2690" y="820" as="sourcePoint" />
            <mxPoint x="2690" y="800" as="targetPoint" />
          </mxGeometry>
        </mxCell>
        <mxCell id="n0ySLByZhCP7fiCknB2w-470" value="" style="endArrow=classic;html=1;rounded=0;fontFamily=Helvetica;fontSize=12;fontColor=default;" edge="1" parent="1">
          <mxGeometry width="50" height="50" relative="1" as="geometry">
            <mxPoint x="2700" y="790" as="sourcePoint" />
            <mxPoint x="2720" y="790" as="targetPoint" />
          </mxGeometry>
        </mxCell>
        <mxCell id="n0ySLByZhCP7fiCknB2w-471" value="&lt;b&gt;t&lt;/b&gt;" style="rounded=0;whiteSpace=wrap;html=1;pointerEvents=0;align=center;verticalAlign=middle;fontFamily=Helvetica;fontSize=12;glass=0;" vertex="1" parent="1">
          <mxGeometry x="2640" y="780" width="20" height="20" as="geometry" />
        </mxCell>
        <mxCell id="n0ySLByZhCP7fiCknB2w-472" value="e" style="rounded=0;whiteSpace=wrap;html=1;pointerEvents=0;align=center;verticalAlign=middle;fontFamily=Helvetica;fontSize=12;glass=0;fillColor=#d5e8d4;strokeColor=#82b366;" vertex="1" parent="1">
          <mxGeometry x="2620" y="780" width="20" height="20" as="geometry" />
        </mxCell>
        <mxCell id="n0ySLByZhCP7fiCknB2w-473" value="e" style="rounded=0;whiteSpace=wrap;html=1;pointerEvents=0;align=center;verticalAlign=middle;fontFamily=Helvetica;fontSize=12;glass=0;fillColor=#d5e8d4;strokeColor=#82b366;" vertex="1" parent="1">
          <mxGeometry x="2600" y="780" width="20" height="20" as="geometry" />
        </mxCell>
        <mxCell id="n0ySLByZhCP7fiCknB2w-474" value="" style="rounded=0;whiteSpace=wrap;html=1;pointerEvents=0;align=center;verticalAlign=top;fontFamily=Helvetica;fontSize=12;fontColor=default;fillColor=default;gradientColor=none;glass=0;" vertex="1" parent="1">
          <mxGeometry x="2940" y="760" width="80" height="50" as="geometry" />
        </mxCell>
        <mxCell id="n0ySLByZhCP7fiCknB2w-475" value="&lt;font style=&quot;font-size: 10px;&quot; face=&quot;Lucida Console&quot;&gt;FC_2&lt;/font&gt;" style="rounded=1;whiteSpace=wrap;html=1;" vertex="1" parent="1">
          <mxGeometry x="2940" y="760" width="80" height="20" as="geometry" />
        </mxCell>
        <mxCell id="n0ySLByZhCP7fiCknB2w-476" value="&lt;font face=&quot;Lucida Console&quot;&gt;TSTEP: 2&lt;/font&gt;" style="rounded=0;whiteSpace=wrap;html=1;pointerEvents=0;align=center;verticalAlign=middle;fontFamily=Helvetica;fontSize=12;fontColor=default;fillColor=none;gradientColor=none;glass=0;strokeColor=none;" vertex="1" parent="1">
          <mxGeometry x="2950" y="780" width="60" height="30" as="geometry" />
        </mxCell>
        <mxCell id="n0ySLByZhCP7fiCknB2w-477" value="&lt;font face=&quot;Lucida Console&quot;&gt;Evaluating&lt;/font&gt;" style="rounded=0;whiteSpace=wrap;html=1;fontFamily=Lucida Console;fillColor=none;strokeColor=none;align=center;fontSize=10;" vertex="1" parent="1">
          <mxGeometry x="2940" y="740" width="80" height="20" as="geometry" />
        </mxCell>
        <mxCell id="n0ySLByZhCP7fiCknB2w-478" value="" style="endArrow=classic;html=1;rounded=0;fontFamily=Helvetica;fontSize=12;fontColor=default;" edge="1" parent="1">
          <mxGeometry width="50" height="50" relative="1" as="geometry">
            <mxPoint x="2800" y="790" as="sourcePoint" />
            <mxPoint x="2820" y="790" as="targetPoint" />
          </mxGeometry>
        </mxCell>
        <mxCell id="n0ySLByZhCP7fiCknB2w-479" value="&lt;b&gt;t&lt;/b&gt;" style="rounded=0;whiteSpace=wrap;html=1;pointerEvents=0;align=center;verticalAlign=middle;fontFamily=Helvetica;fontSize=12;glass=0;" vertex="1" parent="1">
          <mxGeometry x="2900" y="780" width="20" height="20" as="geometry" />
        </mxCell>
        <mxCell id="n0ySLByZhCP7fiCknB2w-480" value="e" style="rounded=0;whiteSpace=wrap;html=1;pointerEvents=0;align=center;verticalAlign=middle;fontFamily=Helvetica;fontSize=12;glass=0;fillColor=#d5e8d4;strokeColor=#82b366;" vertex="1" parent="1">
          <mxGeometry x="2880" y="780" width="20" height="20" as="geometry" />
        </mxCell>
        <mxCell id="n0ySLByZhCP7fiCknB2w-481" value="" style="endArrow=classic;html=1;rounded=0;" edge="1" parent="1">
          <mxGeometry width="50" height="50" relative="1" as="geometry">
            <mxPoint x="2910" y="820" as="sourcePoint" />
            <mxPoint x="2910" y="800" as="targetPoint" />
          </mxGeometry>
        </mxCell>
        <mxCell id="n0ySLByZhCP7fiCknB2w-482" value="" style="endArrow=classic;html=1;rounded=0;fontFamily=Helvetica;fontSize=12;fontColor=default;" edge="1" parent="1">
          <mxGeometry width="50" height="50" relative="1" as="geometry">
            <mxPoint x="2920" y="790" as="sourcePoint" />
            <mxPoint x="2940" y="790" as="targetPoint" />
          </mxGeometry>
        </mxCell>
        <mxCell id="n0ySLByZhCP7fiCknB2w-483" value="e" style="rounded=0;whiteSpace=wrap;html=1;pointerEvents=0;align=center;verticalAlign=middle;fontFamily=Helvetica;fontSize=12;glass=0;fillColor=#d5e8d4;strokeColor=#82b366;" vertex="1" parent="1">
          <mxGeometry x="2860" y="780" width="20" height="20" as="geometry" />
        </mxCell>
        <mxCell id="n0ySLByZhCP7fiCknB2w-484" value="e" style="rounded=0;whiteSpace=wrap;html=1;pointerEvents=0;align=center;verticalAlign=middle;fontFamily=Helvetica;fontSize=12;glass=0;fillColor=#d5e8d4;strokeColor=#82b366;" vertex="1" parent="1">
          <mxGeometry x="2840" y="780" width="20" height="20" as="geometry" />
        </mxCell>
        <mxCell id="n0ySLByZhCP7fiCknB2w-485" value="e" style="rounded=0;whiteSpace=wrap;html=1;pointerEvents=0;align=center;verticalAlign=middle;fontFamily=Helvetica;fontSize=12;glass=0;fillColor=#d5e8d4;strokeColor=#82b366;" vertex="1" parent="1">
          <mxGeometry x="2820" y="780" width="20" height="20" as="geometry" />
        </mxCell>
        <mxCell id="n0ySLByZhCP7fiCknB2w-486" value="" style="rounded=0;whiteSpace=wrap;html=1;pointerEvents=0;align=center;verticalAlign=top;fontFamily=Helvetica;fontSize=12;fontColor=default;fillColor=default;gradientColor=none;glass=0;" vertex="1" parent="1">
          <mxGeometry x="3160" y="760" width="80" height="50" as="geometry" />
        </mxCell>
        <mxCell id="n0ySLByZhCP7fiCknB2w-487" value="&lt;font style=&quot;font-size: 10px;&quot; face=&quot;Lucida Console&quot;&gt;FC_3&lt;/font&gt;" style="rounded=1;whiteSpace=wrap;html=1;" vertex="1" parent="1">
          <mxGeometry x="3160" y="760" width="80" height="20" as="geometry" />
        </mxCell>
        <mxCell id="n0ySLByZhCP7fiCknB2w-488" value="&lt;font face=&quot;Lucida Console&quot;&gt;TSTEP: 1&lt;/font&gt;" style="rounded=0;whiteSpace=wrap;html=1;pointerEvents=0;align=center;verticalAlign=middle;fontFamily=Helvetica;fontSize=12;fontColor=default;fillColor=none;gradientColor=none;glass=0;strokeColor=none;" vertex="1" parent="1">
          <mxGeometry x="3170" y="780" width="60" height="30" as="geometry" />
        </mxCell>
        <mxCell id="n0ySLByZhCP7fiCknB2w-489" value="&lt;font face=&quot;Lucida Console&quot;&gt;Accumulating&lt;/font&gt;" style="rounded=0;whiteSpace=wrap;html=1;fontFamily=Lucida Console;fillColor=none;strokeColor=none;align=center;fontSize=10;" vertex="1" parent="1">
          <mxGeometry x="3160" y="740" width="80" height="20" as="geometry" />
        </mxCell>
        <mxCell id="n0ySLByZhCP7fiCknB2w-490" value="" style="endArrow=classic;html=1;rounded=0;fontFamily=Helvetica;fontSize=12;fontColor=default;" edge="1" parent="1">
          <mxGeometry width="50" height="50" relative="1" as="geometry">
            <mxPoint x="3020" y="790" as="sourcePoint" />
            <mxPoint x="3040" y="790" as="targetPoint" />
          </mxGeometry>
        </mxCell>
        <mxCell id="n0ySLByZhCP7fiCknB2w-491" value="e" style="rounded=0;whiteSpace=wrap;html=1;pointerEvents=0;align=center;verticalAlign=middle;fontFamily=Helvetica;fontSize=12;glass=0;fillColor=#d5e8d4;strokeColor=#82b366;" vertex="1" parent="1">
          <mxGeometry x="3120" y="780" width="20" height="20" as="geometry" />
        </mxCell>
        <mxCell id="n0ySLByZhCP7fiCknB2w-492" value="&lt;b&gt;t&lt;/b&gt;" style="rounded=0;whiteSpace=wrap;html=1;pointerEvents=0;align=center;verticalAlign=middle;fontFamily=Helvetica;fontSize=12;glass=0;" vertex="1" parent="1">
          <mxGeometry x="3100" y="780" width="20" height="20" as="geometry" />
        </mxCell>
        <mxCell id="n0ySLByZhCP7fiCknB2w-493" value="" style="endArrow=classic;html=1;rounded=0;" edge="1" parent="1">
          <mxGeometry width="50" height="50" relative="1" as="geometry">
            <mxPoint x="3130" y="820" as="sourcePoint" />
            <mxPoint x="3130" y="800" as="targetPoint" />
          </mxGeometry>
        </mxCell>
        <mxCell id="n0ySLByZhCP7fiCknB2w-494" value="" style="endArrow=classic;html=1;rounded=0;fontFamily=Helvetica;fontSize=12;fontColor=default;" edge="1" parent="1">
          <mxGeometry width="50" height="50" relative="1" as="geometry">
            <mxPoint x="3140" y="790" as="sourcePoint" />
            <mxPoint x="3160" y="790" as="targetPoint" />
          </mxGeometry>
        </mxCell>
        <mxCell id="n0ySLByZhCP7fiCknB2w-495" value="e" style="rounded=0;whiteSpace=wrap;html=1;pointerEvents=0;align=center;verticalAlign=middle;fontFamily=Helvetica;fontSize=12;glass=0;fillColor=#dae8fc;strokeColor=#6c8ebf;" vertex="1" parent="1">
          <mxGeometry x="3080" y="780" width="20" height="20" as="geometry" />
        </mxCell>
        <mxCell id="n0ySLByZhCP7fiCknB2w-496" value="e" style="rounded=0;whiteSpace=wrap;html=1;pointerEvents=0;align=center;verticalAlign=middle;fontFamily=Helvetica;fontSize=12;glass=0;fillColor=#dae8fc;strokeColor=#6c8ebf;" vertex="1" parent="1">
          <mxGeometry x="3060" y="780" width="20" height="20" as="geometry" />
        </mxCell>
        <mxCell id="n0ySLByZhCP7fiCknB2w-497" value="e" style="rounded=0;whiteSpace=wrap;html=1;pointerEvents=0;align=center;verticalAlign=middle;fontFamily=Helvetica;fontSize=12;glass=0;fillColor=#dae8fc;strokeColor=#6c8ebf;" vertex="1" parent="1">
          <mxGeometry x="3040" y="780" width="20" height="20" as="geometry" />
        </mxCell>
        <mxCell id="n0ySLByZhCP7fiCknB2w-498" value="" style="endArrow=classic;html=1;rounded=0;fontFamily=Helvetica;fontSize=12;fontColor=default;" edge="1" parent="1">
          <mxGeometry width="50" height="50" relative="1" as="geometry">
            <mxPoint x="3240" y="790" as="sourcePoint" />
            <mxPoint x="3260" y="790" as="targetPoint" />
          </mxGeometry>
        </mxCell>
        <mxCell id="n0ySLByZhCP7fiCknB2w-499" value="e" style="rounded=0;whiteSpace=wrap;html=1;pointerEvents=0;align=center;verticalAlign=middle;fontFamily=Helvetica;fontSize=12;glass=0;fillColor=#dae8fc;strokeColor=#6c8ebf;" vertex="1" parent="1">
          <mxGeometry x="3340" y="780" width="20" height="20" as="geometry" />
        </mxCell>
        <mxCell id="n0ySLByZhCP7fiCknB2w-500" value="" style="rounded=0;whiteSpace=wrap;html=1;pointerEvents=0;align=center;verticalAlign=middle;fontFamily=Helvetica;fontSize=12;glass=0;" vertex="1" parent="1">
          <mxGeometry x="3320" y="780" width="20" height="20" as="geometry" />
        </mxCell>
        <mxCell id="n0ySLByZhCP7fiCknB2w-501" value="" style="rounded=0;whiteSpace=wrap;html=1;pointerEvents=0;align=center;verticalAlign=middle;fontFamily=Helvetica;fontSize=12;glass=0;" vertex="1" parent="1">
          <mxGeometry x="3300" y="780" width="20" height="20" as="geometry" />
        </mxCell>
        <mxCell id="n0ySLByZhCP7fiCknB2w-502" value="" style="rounded=0;whiteSpace=wrap;html=1;pointerEvents=0;align=center;verticalAlign=middle;fontFamily=Helvetica;fontSize=12;glass=0;" vertex="1" parent="1">
          <mxGeometry x="3280" y="780" width="20" height="20" as="geometry" />
        </mxCell>
        <mxCell id="n0ySLByZhCP7fiCknB2w-503" value="" style="rounded=0;whiteSpace=wrap;html=1;pointerEvents=0;align=center;verticalAlign=middle;fontFamily=Helvetica;fontSize=12;glass=0;" vertex="1" parent="1">
          <mxGeometry x="3260" y="780" width="20" height="20" as="geometry" />
        </mxCell>
        <mxCell id="n0ySLByZhCP7fiCknB2w-504" value="&lt;font face=&quot;Lucida Console&quot;&gt;&lt;b&gt;(b)&lt;/b&gt;&lt;/font&gt;" style="rounded=0;whiteSpace=wrap;html=1;fontFamily=Lucida Console;fillColor=none;strokeColor=none;align=left;fontSize=10;" vertex="1" parent="1">
          <mxGeometry x="2580" y="630" width="80" height="20" as="geometry" />
        </mxCell>
        <mxCell id="n0ySLByZhCP7fiCknB2w-505" value="&lt;font face=&quot;Lucida Console&quot;&gt;&lt;b&gt;(c)&lt;/b&gt;&lt;/font&gt;" style="rounded=0;whiteSpace=wrap;html=1;fontFamily=Lucida Console;fillColor=none;strokeColor=none;align=left;fontSize=10;" vertex="1" parent="1">
          <mxGeometry x="2580" y="740" width="80" height="20" as="geometry" />
        </mxCell>
        <mxCell id="n0ySLByZhCP7fiCknB2w-506" value="&lt;font face=&quot;Lucida Console&quot;&gt;Timestep and events from FC1&lt;/font&gt;" style="rounded=0;whiteSpace=wrap;html=1;fontFamily=Lucida Console;fillColor=none;strokeColor=none;align=center;fontSize=10;" vertex="1" parent="1">
          <mxGeometry x="2820" y="640" width="100" height="20" as="geometry" />
        </mxCell>
        <mxCell id="n0ySLByZhCP7fiCknB2w-507" value="&lt;font face=&quot;Lucida Console&quot;&gt;Output events from FC3&lt;/font&gt;" style="rounded=0;whiteSpace=wrap;html=1;fontFamily=Lucida Console;fillColor=none;strokeColor=none;align=center;fontSize=10;" vertex="1" parent="1">
          <mxGeometry x="3260" y="640" width="100" height="20" as="geometry" />
        </mxCell>
        <mxCell id="n0ySLByZhCP7fiCknB2w-508" value="Timestep and events from FC2" style="rounded=0;whiteSpace=wrap;html=1;fontFamily=Lucida Console;fillColor=none;strokeColor=none;align=center;fontSize=10;" vertex="1" parent="1">
          <mxGeometry x="3040" y="750" width="100" height="20" as="geometry" />
        </mxCell>
      </root>
    </mxGraphModel>
  </diagram>
</mxfile>
